<mxfile host="app.diagrams.net" modified="2023-02-28T23:58:41.374Z" agent="5.0 (Windows NT 10.0; Win64; x64) AppleWebKit/537.36 (KHTML, like Gecko) Chrome/107.0.0.0 Safari/537.36" etag="2UqmFEHqxbxD-uwGnHUr" version="20.8.23" type="github">
  <diagram name="Page-1" id="2YBvvXClWsGukQMizWep">
    <mxGraphModel dx="1018" dy="530" grid="1" gridSize="10" guides="1" tooltips="1" connect="1" arrows="1" fold="1" page="1" pageScale="1" pageWidth="850" pageHeight="1100" math="0" shadow="0">
      <root>
        <mxCell id="0" />
        <mxCell id="1" parent="0" />
        <mxCell id="BzTV7QNFPkAEFTMii8ra-1" value="acquire()" style="shape=umlLifeline;perimeter=lifelinePerimeter;whiteSpace=wrap;html=1;container=1;dropTarget=0;collapsible=0;recursiveResize=0;outlineConnect=0;portConstraint=eastwest;newEdgeStyle={&quot;edgeStyle&quot;:&quot;elbowEdgeStyle&quot;,&quot;elbow&quot;:&quot;vertical&quot;,&quot;curved&quot;:0,&quot;rounded&quot;:0};" vertex="1" parent="1">
          <mxGeometry x="40" y="230" width="100" height="330" as="geometry" />
        </mxCell>
        <mxCell id="BzTV7QNFPkAEFTMii8ra-3" value="" style="shape=image;verticalLabelPosition=bottom;labelBackgroundColor=default;verticalAlign=top;aspect=fixed;imageAspect=0;image=data:image/png,iVBORw0KGgoAAAANSUhEUgAAAggAAAC6CAYAAADLYbU0AAAAAXNSR0IArs4c6QAAIABJREFUeF7snQd4FEUbx3+7d5eE9B4goYYeCKH3rtLtoCIqIEVpAtJ7h9BRUAQLYEFQ/FC6iPTeO0jvLYGEhNS73e/Z3VQIIUDEiDOPz2PYm31n5jd7N/99550ZKSgoSEUkQUAQEAQEAUFAEBAE0hCQhEAQz4MgIAgIAoKAICAI3EtACATxTAgCgoAgIAgIAoLAfQSEQBAPhSAgCAgCgoAgIAgIgSCeAUFAEBAEBAFBQBB4OAHdg5A7n0qn1iq3I8FihrlzZcLvgJu3ytCPVa7dAPdcKoPHmVAfI6SxRgOFJrUglz3ExMHgEfLDa/Y35njvbYWSxcFqg8gwmPOdTERk5gW6eKlU94bVJ6Rsr9m0CQp9B8kkJBqmR49RGDwoY0aSDKOGKJhMcPSYxLcLsr8+2d5AYVAQEAQEAUHgX0dAKh0cpA7vrTAs1BiQ3H1U3ntdZfrnMlNCbfTqZ9Kvv/GhjT804RBrDEjOLuDipHIzTMJqNdqdKxckJICPN0RGQmxcKg9tgP3wDZUJn6Uf+Dy9wCzBrShQEkFRwNER4uMNOxEREBefakf7zM0Vbt2C+ATjuskMZsDNUyUxXtKFTnLK5Qjurio3b0q6INCSJhAO7pPYd1Siak2VQp4qC34z6mVvD54ecPt2arkuLuDmo1LHF347IoEKUdHg5ARxcWCzgWQCiwQJVsOGlsfJWQVF4laEUa7ZDJICHt4QHwuRUcb1wcNsTBpnIk5vj8rovgqDJxjc7ezBy0MlMlIiJja1XYVCVGqWJJ1AkGUwqZCYJOK0ekcllaEx8vVWiYyQdJEmkiAgCAgCgoAgkBkBqdHrpdRKxeCXXyW8vUBVoFt7heETZaaFKvTod/+bbL6iCu+3MN7A3dxg2AiZmHho215BioK8BY3rQ4bLSYMeZCQQfP1VPmqrEpsI2y+r7F9pIiwcPuqs4O4ENhlcXWHsGJmIGChaRqXd6yp3Y8DZGUaONsotUEKlUVEVn1JgsYdPpkuER0o4uakM7K4SmwDubjBqtExkTHqBoHlJOr+iMm6OjE+ASu9Oqj74a0Jk7HiZu/EwqI/xxp7LDNHxoMTC2E9k+n+ssGCRxPmLEo6FFCq4SWzaL/Fyc5VS5RXkOAkHB9i3AxavkgkOsRHkIhFYHRydYcIEmYgokO1Vhr6hMny+TPU3FM5tlLlyFRycVIb3UYmOBWcnWPitxL6ThkDLSCD4+arki4Td8ZIuRiaNVejRVwYJJoxWuHPHEHbzvpI4dlZ4HsRPgyAgCAgCgsCDCUgvtSqlBheE/SehbnmVhcsl+rRXMxUIHu4qd+5I2BT4sIPCpq0Sh49IukDYvEzi5DWJ+nVUPBxg8WpjIMpIIGiudX0AA1p0tbFuQapAWLlK4q8zEq3eULlwATZvk3irjcLaHyRuJEhUKKcSEgRffScZAiFY5YtFsv5WP3ygjT6DTIwboRA6xZg+yF1CoUCixI7Tku5BsJgkwiJUalSFFSsk1m2WeK6ZjUMrZa7bJAILw8tNFCbPSPKs5FZ5ITcs2p86sGYmEGJjYfUfEiY7lcEdVUbMMARCSUeZhVslvDxVPuqoMnS8YX/qBIWefWUG91P48huJazckXF1U4uIl3SvjVEShhr/E7xseXSC0629j2Vcmbtw0HoSpQxV6jvxnp3nEl1IQEAQEAUEgZxNIEQiXLkOJojB/gcTwPpl7ENx8FQb3QI9H0N5Uv56fKhCWfydzIw7q11XxdISfV2RNIAQ3tXFle6pAWLpU4sxFiRYtFa5elHSB0Ka7wtxPjIFNFwjB8NU8QyBo8QELNqd/K9YEgla/5LCJDQsllh80BII2xVAgEGJjYPVa476mbRXqFEntsEuX4JPPn0wgpO1+TSA4XJbZedPw1nTvqDB0nGE/dLSiezj6DVYYMti4ZjKrDB+iYq9NTUiwfrXE8scQCMMHKTg5pnLQgPRNKiNnP56idoKAICAICAL/FIEUgXD+MgQVg/k/ZCwQPAooBCRIHLoqETpWod9AYxBr30FhexoPwuMKhM79bSyak7lAeLeLje9nyNikJA9CsMpX8+RMBcL4SXLKXH8y5NQYBJgaqtAzKc6i0bs2Vs035v7vTe4P8SA4FVUIcZLYkjTFkOxByKpAGD7KxuRQmSG9FPqONOqgeWdWLZY5ewvMeRQaFnu4QCh4F3bcTT/FMHSgjVlzUj0I/9TDJsoVBAQBQUAQ+PcQkJq9WUotVxj+t1Ri8hiFqAgjDkGLQWj+jg3/REl33U8cozBwiKwH4Y0eoTBtmszN2yr9RyosXyinTDFkJBAccqn45VVp1RTmfC8RFm68sTs6qYwerOrR+6tOqBxelblAaPicQqG88NVCmVFDbcwMlbl458EehHKNbNTPKzH5a5mPuiosWy5x+myqB0ELUmzeVMGaACvXyFSppBJcXNVXNbz5ng0uSvz4pyGEHBxVtGDOSTNlrPEQES2RN0jhw2YwJFSmWzeFrZsk9jymQJDMKq3qK6zZa+JGmPEAfdBeYcc22HdEptWLNiIj5RQPgsleJXSwSug0SfeQaExz+0HXDgqDR8sMG2Fj8Scyh8MlTBaVsUMV+g8x0aK1wpX9EpsPixiEf8/XVNRUEBAEBIGnT0AqHVxKHdpDZcTk++ektah4bx+VSiEqm7fJRN4xKqgFCFYor3LxLNyMkIiLhUSrNuBDXAwoqhHJL0vGSgZ7B3DQIvuTkrbCITlZLEa+ss1snNlgCAQtIE9bHaAFQWorI7RVAto8vJbcPVTy+sLFy5IeTKglLULfTkYPRrw3ubmr1KissmuPrNvWBlMtADExwaiztkrAIsPdpBUCufOolCujsm2bRERUmkFUMlZPaElbbREVY/zt6qZSs6rK3r0S124a+bXARG36RVuJkTZpbZW0tiigsdXaeSdplYGWTwvs1FYdaCs5tGS2QFApFScL7DkkabGG6VZ0ODmDOcnhkczU0xOqVVXYvDm1vzRb2oqGmtUVDhyQuX4DPX5EJEFAEBAEBAFB4EEE9H0QatdTeb6GSmw8TJ4gEa9NeD+FpA3s/XoaI5WHJ4wLlVOWBD6F4kURgoAgIAgIAoKAIPAAAilbLWv7BWjr7a9clnhaL5eaDgnwN2oWeRvu3BX9JAgIAoKAICAICAI5gYA4iyEn9IKogyAgCAgCgoAgkMMICIGQwzpEVEcQEAQEAUFAEMgJBIRAyAm9IOogCAgCgoAgIAjkMAJCIOSwDhHVEQQEAUFAEBAEcgIBIRByQi+IOggCgoAgIAgIAjmMgBAIOaxDRHUEAUFAEBAEBIGcQOCpCQSLGZ4vYGLF6aQzl3NC6//ldWjTMD/rt17iXNSTLUy1OHnQ/LVWRFy/wJ+rl5K7aBAtXmnByp+/5tSZC1mmZHLKwwfde6LabvHZhPFZvk9kFAQEAUFAEMh5BB5LIExuYEfolgT9UKbkVKmQiRaFTLjYwarTNn49mV4IeDpJdAo2M25bYrZQqOYvU9Fb4tMDjy44Ope3sPuyjZ3XUwfWAB+Z7mXMOJjgbKTC1J3WbKnn32lkereybNx9kcXbbj1RMe90Hc7OP3/mxNHDKXZcPP3o1KM/U4f1xJZ82tVDSnnpnc6cPbKHg3t3PFF9xM2CgCAgCAgC/zwBXSDkcZEIj1EJ8ZM5c0slLM4YEfK5Sly8Y/zt7CARG6eiDceaQBi/JYFCnjInwhQi02xx/FaQmZgENZ1AcLQDLwdjd8Zke8lNz+0iUdBFYv81hbgsvAgX9pDIJYOrg5ROIHg7SRR1lzh8XSEqaWz3d5G4dlfVtxXWtjk2KxBrA0MgWEmUJK7dUbkakzoCVskrUz1Avk8gODtAsJfMoTT2M+s+bw97Kga6cfTcHS6EpSopFyc7agV5cOxsJGdvpl4PzOdCER97/tgfTkEPM6fDEwnwzkXE3USiY61IFrPOMCwqEQ9nC77uxt7VZy5Fkyy57Cyyfo+Huz0uZlh/KFU4ODhaqFfakyOnbnPhVmqHBVZuTqCbjd/XrLivOfkLF+OF5s35cvrkLD2pTd7qxMUT+zkkBEKWeIlMgoAgIAjkZAK6QBjf2I4T1xVcTBLBPhJdVyagaYR5ze15b6lxoEC90mb2HUkkQpV0gRAWpXBXlSjuJTNsfTzJY2BGAqGYn0yj/CYq+Mm8tyz1gIKg3DKtipi4Hg/BPjK9/4gnIoPzFJIB1g000aSAiUtRKn72KteiVN2DUMxHpmtZM6ciVYJ8JbotT0Az83kjewauT+B2nEq+vDK+cSp7bqm6QMjtoBKWKOkiaPauRE4mCaGMBIKXs8To6haO3VYp4SMzcE08EZk4QooXcGPy+yU4fS2GAF9HJs47wvaz0eT3d+WH3mXZczICb28nZvx4hG1/RWHJ5cCeKZVYdyiCy6fDaFZYpvbnl/miRwg/b7zMmr03sQvwpXOQA9NWX6BeWW9erpGHvLld6TVkMxeTtsYukteJn4dUYsOhcGRJIuFyGB8vuaIfVrF7ahW2HL9D8cJuhM45yLoTxsEajV5+k+ioO2xee79AcPMvwhst3mT2tNFZeoart3ifu6cPcWDvzizlF5kEAUFAEBAEci6BFIEwaGWC7h0oF2CimElh4Xk1U4EwaVui/ubduYqZ7ecV9l4zXv8zEgjJzZ/XzD6dQEgrQLzdJIqgsj3NQU73YutYxcL/diVwU5FIO8XwSTM7ui8zlIVLLomPgySG71YyFQgHrtnYckWhcXETTpLEz8cNt0NGAmFiUzv6LE9SLhJMqmai99YHT2245DKjKCp34220rOtP2UJuDPrmKM2alOHKhoPsvSvh425P/5ZF+Hj2EWZ9Wo9evTcSE2/DbO/In+08MhUIyVxebV6GXb8dTCcQPutelhf6b8Vkktn3eV2CO/7J7HHVGTt9P+euGSdMHZ4WQuke+x8qEBx9A2n99lvMnpq5QKjRoBk+vn4ULlaKRXNCuXTlRs594kXNBAFBQBAQBLJEIEUg9F9pDIDBvjLlXWHuKSVTgZAcg9CiopnTl55cIGSltl1rWZixyXh1TysQ0goNZ4vEkEoy/bbaMhUIyTEIVYqYyGfOXCBo9k/fTp3/uBurMHnPgwVCgJ8z83oHc/1WAh6uFvb+FakLhJZtK7Hom133NXX57Hq06GYIBEwyGzvmeWKBkLaQtRNqEBGdSHxichsSaDXu4EMFgpNvIG9nQSAkl/XiOx9y9sheMcWQlYdZ5BEEBAFBIIcTuN+DkFumlKPK92fSexBeLG9m7f5E7irGFMOErQlcj4V3Klk4ctH2xB4EewuYbBCTSRzCB9UtzNueSKwC1QJkKnoZQYqzmtrx4fIE/ShnLTahdxmZobsMgTBofQK34lRKFjJhF6lwIGmKYe9VK9uvqtQuasLXlLlA+DzJfnJfulggKpMphm/G1aXtgPV69tfq+lM+yYPw0pvl2L5kP9fjVCxmGX8vB85dj+H7mfXo1Gsj0fE2TA72rGvrfZ9A8C6Rl5YFzHy2OnVVQWYehLTP3eKx1fn4k1QPgreLmbCkQI0XXn6TmAdMMfgXKkqTl95gThanGGq3fJ/Ik4c4sE9MMeTw772oniAgCAgCDyWQIhBOXrGx9JRCaD07OiyNwypJ1C9ppo6bymeHFCbUt+P95fFYFSNI8XKYjXl/KQytbWHWzkR9fl5LVQuZaJJX4odjCok2ldORKiU8Zf2zAdUtjNuaiFVRORWh0rCMmRfcVcbuVhhZx45hGxIIi31wyHyjQBNF3SQWHLcxuraFI1dtukAo5CnRrZyZ0B1WQuva0SYpziFfbpkBQSaGbLUysKaFmbsSORORFINgpzD9gELXKha2n7Oy+pyhTAp4SfQKMfP5PhuqqnLitooWgzCqmoUhmxPpX9vCp+sSuJBJrMTA90OIu3WbBRuvM7ZPRa6cuKV7ECoUdWfUO8VoP/0gYz+qyNUdRxmw/BZ2jrnYM7UqDQduI7RdcQpEh+kCwTmPNxsGFKf5iD0Mb1eaNTuu8NPGK+T2sCe/Ty5q1SjM8S2nuYnEzr8i0GIQkqcY0va8qkoc/KIOTQZtp0/bIDatPsPiQ7f1LKrszJAR/Rg/fBhWLZozJUmUb/QBvhErWbX93EMfJC3DS607c+boHuFByBItkUkQEAQEgZxNIN0UQ538Mlsv2khUjRUHWnKwQM28Mn+cv//Vvk4BmT1XFKKfYOWiFl/3fAGZteeVLC2n01YmuFng6K30QkKWoJCrpAuStCnZ/voLCgn3NKFiXpkLtxVuxD68k2RJpWEhE6vPKihZWPZXpogHLpKNrSeNYMDklMvBzKvVc7No3cV0nM32Fl4s784vO8NTphiMeyTerJeXNTuvEX730Zd0pi37rfoBrNpxjdt30y/hrPVcU2rUqs30sUOJjY9HNpl57f0+WKxR/PD1jIfDScpR/cXWFHCysuTXpcTGiLO7swxOZBQEBAFBIAcSuC8GIQfW8b9VpTQxCE+74fmLBnPh5EE8/QOIvHIpS4Lt3jo6ufsQUi6YLevWPu3qi/IEAUFAEBAEspGALhBMMvpeASLlDAIWWSIxK26KnFFdUQtBQBAQBASBZ5DAY+2k+AxyEE0SBAQBQUAQEAQEgTQEhEAQj4MgIAgIAoKAICAI3EdACATxUAgCgoAgIAgIAoKAEAjiGfh7CdjZ2f29BTyBdUVRsFpz/iFcT9BEcasgIAgIAtlGQHgQsg3lf9uQyWTCop2IlcOTtrdFQkKCvseFSIKAICAICAIPJiAEgng6soWAvb09UtKhUdli8G80kpiYiM32ZHtK/I3VE6YFAUFAEMgRBIRAyIZueLesmT9P27gUnbPfSus1acmh3RsJu3HtiVv9ducBbP3pK87eNA5mcnBweGKbWTXg5O5J8UJ52bvvcFZvuS9fXFzqUdsZG3Gkz8gxbFu/ks1//v7Y5YgbBQFBQBD4txLIsQLhw/Jmtl5SOHDj6W7QUC63TDkvia+PpL5hdnnOjpl/PHhv5fZlzfx20saNmJwtEBq1bMfOP5Zw69atx39eJYn+4z7n26n9uXw9IsXO0xQIWqEuzs5ERUfj4+tL3jwuHDhw+pHalFYg+JSoTvEGLbi09w/ObVueYkc229Os9Udc2LGQ/cfOP5J9kVkQEAQEgX87gaciELQDlMyKSrX8Jq5EKuy7mTqQFvGSCPGWWXrSRnySFgjylmlR0syBGzb+Cle5Gq3qBy7ldZEIj1KJB9zsJdzs4EKUSi47cJWMo6ojYxS2XTXsl/CS9VMYtTMcDl9TOBuV+QCulVvCW6K4u8SvpxTirCqnI1Q0gfDZ2gReLGridJjC4aRtnh1zSRRyMralPh+ZfsvpQh4yFf0kztxS2HPj4cIhl5svVavX4OTBbVy6nPqG7+7jT0j5ipw4sIOr11Kv+wYUoViRguzdvQM3d0+uXjqPxc4Le2s40Qq6u79Q0ZKc+euoXj/tKGYtXbl4jrhY49hncnniZg8++Yri6Wxh57bNKc+zo7MblWvW5fyJQ5w9eybluiQ78FGHV5j2xYJ0z/69AsHb2xstKNDLy0vPd/PaZSKijHLzFwrE3iyjufrPnTuHLMsEBuZGVR25ffkiLn559Lw+nm4kxERxK8ZKbm8PUBVOnjqNqlrIl9uDO3HxBBYujKOjmfPnrnDpyhWKFimil2Gz3eXs2asUKVKEkydP3vc9TRYIriXq4Z8/D3fCb2Oxk9MJBO0mj9wFeKPVu8yaMiqdjUZFTGw+ZyNaxDz+238DRf0FAUHgAQSeikCoVNBEdXe4GCuR30ti71krG6+q1Ao0EewkcTUeGhU20WdtPJEJ8Gpxs36c87lIQxzsv27TD1lqU87C6v0JXFUl/fPKfhLT99oI9JV5I0Di+F0Jb1eJCzdsrDqv6Kc53rhj40A4aOdGTNueyNk7Dx6stXK1sx7yOsGuayq341TWnbfpAuHuLYU7d6FhEZnhaxK4mgBenjJ1fGSqB8jM3ZeYIhzK5pFpUsjEiXCVgu4Sl8JtLDr1YE+I2SkvvXq2Y+euQxSvVIc/vpnE6ctXCAiqxMvP1+PwsRMUKVGaPRuXs2/ffvIFlqbpS69w/MhB8hQug1mJ4dsvpuDt15A8Eas4FC9hNlsYOP4zRvbuoHd93YYvUb5KLRZ/N5vzZ/7Sr0mFGvBmw+pcPXsQN7/8uBDFd/Pn4u3nz1ttP+TQvl04u/ly89JJdmw1Tqf0rPMxiTtnEBWrybTUdK9AKFqsGL6ebuzbfxCzgyNlg0qwacs2PH0DyONq4sjpCxQvFcLFE/uJV2Xq1avKrh0HUOLiCK5chVth1zn+1xmqV69B2K1wThw7SoVKlblx6SwXrkRTqXRBDvx1ioCAADw9HTh29BxmizP5fZ04fOocfnl9uHE1jEKFC3Pm9P3ehWSBYLKzw5aQQN7yjbGzv18ggIl+Q0cSOnJQqkiS4Kum9kTcstJrq4hlEL+ugoAg8GwSeGoCoYCq8PN5lfyuEt0qWujzZwLzmtvz3lJjoMnnJ+Mfq7A96Wyj3lUtrD9vY/fV1IE1M4HQxBs+PargYicx5TkLHVYkpDvuuXSgCem2wqF7Dnm6t1ur5JWp5CszY3/qq6EmEL5YE6+fcGmykxheEoYcSBUa/apZWH7CmiIQXitlxtcOZu236kdQPyyZHZyxxt8FLbJettDvw2aEzvwfb3fowd7tGzh2aB+S2Z0KJf3YfegEVWs3xMNVYeWyNRQPCqFyzfoPFQhaHTr0GMzvvy1KJxAaF1ZZsfZPvYpDJ83RBUVQSCVKBEgsXrYTN798tG7TkZmhQ/Q8BV4cyc3fRxMTl37KJSOBYLNaOXPG8D5Ur1ufbevWUqfBc5w5dVL3cGirHvJ4Smzdc4b69WuwZs1GPW+NGjU4cGAf0dExlC9fnkuXznPjRjjFSpQgIS6Os2ev6wJh95Fj5MmTB19fR32KwcnJmQoVynP61EkuX7maKfZ7YxAeLBBgwPBxjBs+4GHdKD4XBAQBQeCZIvDUBIJXnMKqa+mHS00grL+Q+ga265SVw0mHAD6qQKjnqPLlufT2NQ/CwPUJuicgX14Z3ziVPY8pEJJjEFQTjA+RGLDnwQJBe0LaBJsp5C7j4wDTdydyIpNyi5avSYNaNbikD2oyQXljCJ2+yBAI29Zz7PD+dA9d1ToNcXcIZ9Xq3U8sECr5w87N6Q9W0gRCnRoVuHDDmBK4GxXJulW/6n8HNBnGrT/HPbJAqFO/ARv+XEvdBs+xc9vWlPaoqo2EBCv16gXzxx/70giEvURHxyYJhLPcuHGboiVKkJiJQNBu1jwnJUuWwMVeYuvugw/8smZdIEgMGD6GccMHPlNffNEYQUAQEAQeRuAfFwjJHgR7C8g2iE1yGGQkEFqXtbD7r0SOx0K1AJnynhIzDxpTDDlJIDhb0I+EjrFCsL9MFR+ZOckeCclE8aAynEgz6Gtv7uMHdiUhIR7MrvTr0ihVICR5EGQHL/zd7bh47SqaQPBwtbJy6dp7BEIlynleYM2x60lTDJ8ysvcHKc9ARh6EBwmE4nlkflm5A7PFDndPL8KuG2/kklNpXipvz5JNe9I9WxlOMbg7c/j4SSwOrhQvnJst2/fgmacgBT3NHDtzGScXV8JuXEfbQ+FxBULu3Lnx98/D4cPHUBQZOwtYtCmNMqXYuHETfn5+XEsTu5Fc6awKBHtXXzp16swnE4ena28pb5n4OIXT0Q/7ionPBQFBQBD4dxL4RwVCpcJmXssDP55S6FTOkvK2r6GsVcREdQ+JHddV/rqlcCVa1UVB/Xwmlp+x0amcmX6rE9BCCrJTIBT3kmlbxsSqMwpR8Qp7rhtBihl5ECrlkXGySHoQ5KFrNi7fRfeI1Mlvora/zNIzNqrnM3H5to1fTxvKJ1/BIrTt2o+xH7fXpyy01KpjP26c2s75a7cpW64qgd4RukBwL1yDTm1e4pcfv6NKnSbs3/o7hw/spXjpcjRq2pwVS5dQ+8XWJNy+pk8xuLl78cHHQ/hlwde81qYr84Z14mqsSpnyVbDY2VGrQVOOHthNeNh1TuzdRIx/AzISCHkKFOHN1u1Y9r8fyV+8ArlMiSz7+TtDIMgyg0NnMbb/h+n2EnjQFIOLiyuqksjBQ0dSviEFChfF082ZuJhojp04qQcpBgcXZP9+YzqiVKlSnD17mtjYeAIDAwkPv05ERDR5AwKwJiRw/XoExQr4cfLCRa1GhISU5W50NJcu36REicIoNhsHDh7UpzHKlg1h/37DM5E2JQsEe698eOTOh1v+IMxmmfAzh7h+dAuqavRN1bqN8fF0ZekvC9Pd/2VTe/quiefWgxe3/Dt/EUStBQFBQBBIIvBUBEJmtLUxskoeiV1XVWxZmLB3toeSnkb+nJy0duVzlvSlj3H3xLEVDyrLiSMH0lU/d/6i5LLYOHs6dcWAlkFFolTZ8pw/eZSYmNiUe5xcPciT2xeTJVdKDIL2oWwyE1S2Iof2bn8iPJJspkSZclw4eZC7MekDEr2L16ZTu1bMGNGLyBhjGuJhMQhPVJlsvlnbRTE+Pn2b7i/CRLO3OuBhb+XbuV+m+1iW4Otm9rRbFq97ikQSBAQBQeBZJPCPC4RnEerTbFPaIMWnWa5WlovFQlRiol6sdgaD5glITvny59ff5C9fvvy0q/XQ8rStlrUlmJkne7zc7QiPiLovm8UEr+SGRTmvaQ9tu8ggCAgCgkBWCQiBkFVSIt9DCfwbtlvWhIEmEEQSBAQBQUAQyJyAEAjiCREEBAFBQBAQBASB+wgIgSAeCkFAEBAEBAFBQBAQAkE8A4KAICAICAKCgCDwcALCg/BwRiKHICAICAKCgCDwnyMgBMJ/rstFgwUBQUAQEAQEgYcTEALh4YxEDkFAEBAEBAFB4D9HQBcIrTv1xj9fPmaP6cnt5L2O/3MoRIMFAUFAEBAEBAFBIJlAigchpHJt8nmZWLpynaAjCAgCgoDouYFnAAAgAElEQVQgIAgIAv9xAqkCoVJDXE1X2Lj90H8ciWi+ICAICAKCgCAgCKQKhKpNcEo8w5Y9xwUVQUAQEAQEAUFAEPiPE0gRCK5euWnXtS8xd25zdOsSNu8QnoT/+LMhmi8ICAKCgCDwHyaQ6kGo1ggPSwTrNj7ZKYD/YZai6YKAICAICAKCwDNDIN0Ug7PtLJt3HXtmGicaIggIAoKAICAICAKPRyBNkGINArwsLFu1/vEsibsEAUFAEBAEBAFB4JkhoAuEyjXrE1KzEX98P4kzF288M40TDREEBAFBQBAQBASBxyOgC4RiJctw4cxx4uITH8+KuEsQEAQEAUFAEBAEnikCYqvlZ6o7RWMEAUFAEBAEBIHsISAEQvZwFFYEAUFAEBAEBIFnioAQCM9Ud4rGCAKCgCAgCAgC2UNACITs4SisCAKCgCAgCAgCzxQBIRCeqe4UjREEBAFBQBAQBLKHgBAI2cNRWBEEBAFBQBAQBJ4pAkIgPFPdKRojCAgCgoAgIAhkDwEhELKHo7AiCAgCgoAgIAg8UwSEQHimulM0RhAQBAQBQUAQyB4CQiBkD0dhRRAQBAQBQUAQeKYICIHwTHWnaIwgIAgIAoKAIJA9BIRAyB6OwoogIAgIAoKAIPBMERAC4ZnqTtEYQUAQEAQEAUEgewgIgZA9HIUVQUAQEAQEAUHgmSIgBMIz1Z2iMYKAICAICAKCQPYQEAIhezgKK4KAICAICAKCwDNFQAiEZ6o7RWMEAUFAEBAEBIHsISAEQvZwFFYEAUFAEBAEBIFnioAQCM9Ud4rGCAKCgCAgCAgC2UNACITs4SisCAKCgCAgCAgCzxQBIRCeqe4UjREEBAFBQBAQBLKHgBAI2cNRWBEEBAFBQBAQBJ4pAkIgPFPdKRojCAgCgoAgIAhkDwEhELKHo7AiCAgCgoAgIAg8UwR0gSDJ4OdjtMtmg5thxt9prys2uJF0/VEJODmDi1PqXdeuP6qF7M3v7gYODobNhHi4FfFw+7IJcpngbsLD8z5qjtx+cP0GqKpxp68v3LjxYCtafi3FxUFE5KOWJvILAoKAICAICAIPJ6ALhNffVAg/B+u2yzR6UcH5Lvy8VqZKfYXapeGHxRI9uqoMHCKTaH240XtzFCmpUKEMBBeDPQfhl9/kRzeSjXe897aCvQXCI6FCCGz4U2L1BinTEtxzq7yQGxbtzzzf41Rz2gSFfoNl4pPEx9RQGz37mTI0JUnwSnMFF29QYiW+XZD99XmcNoh7BAFBQBAQBJ4tAlLF2qXU5jVVFv2aNGhLMKi7wpjpMtrA1aOvcT1PKYWAKIldFyXds9C4iUKtSipffClz7qIxSFWsrHLpLHTprLJ8qcT2vamDl4uXyodvqEz4LI04kKDjBwqedjD/d4g8L3M3BmpUUzl7Bj7opLB0iczugxLay7X2Fl+9pkLz51S+/17m4HHDvoePir89vNha4do5ia9/TC2jWi0brzSEzz6XOX/ZsKMJhIP7JPYdlXBwUenXWmXE57LerqDSKu+8rrBwoczeIxLagNyssYqDk0pBJzh+Q0JJgOV/SNStrbL/oEREBFg8Vfwd4NwViaCSql5OjVoKUqzE3B9lEhIhTx4F+1iJtz9UOXUEFiYJpWJNbURskLkRLWFxVGhZBr7fYbShZGmVd99QWLVUZvNuCZtiPICFQlRqliSdQHB2VnGLg8tWCVmGpo1Ulq4wGOUuqNKzg8LyX2S27Eu182w9zqI1goAgIAgIAtlFQHqpVSk1uKD2Vi8xdbxCTCQkJsLwiTLTQhV69Lv/bX9QX4W58yQuX5fo1kVh3VqJw8cl2rZXOH4Qtu2U6dLTxv41MlsOGwNURgKh9wgb27+T2HxSpu/HNr6eayIsHD7qrLBrM2w9KNOmncLJwxJbdko0bKhgJ8HSVTKt29u4uU9m9R6JAiVUWr6gMPETE0Uq2nivrsSQSTJv9bBx+Q+ZjYclenZTWLpc4tQZSRcIh/ZL7D8mUec5BU8ZFq+SqVJZpWhB+G6RRKPXFNzCYeF6o/0ZeRD6f6ywYJHE+YsSjoUUKrhJbNov8XJzlWohKv1GyVStolBEs7lQJjjERkhJmL/AxPMtbATnkpg837A/dZxCzwEyg/spfD1f4spVidqvKvhESixeK/HqywoRERJ/rjd4ZiQQ/HxV8kXC7ngJsxkmjTUEnuSoMraryoAJMq++o3Btr8TWI8LzkF1fImFHEBAEBIFnkUCKQDh/GYKKwfwfJIb3UTIVCGlBtO+gsH2rxOEjhkBY8b3M9VioX1fF0xF+TnqDzUggpPVQhDSzcWlbqkBYulTizEWJFi0Vrl6U2LxNok03hXmfyvrbeYVyKiHBKl/Nk3WBUN1HZcEmGScnGD5Ioc9AmXEjFMZPkomMAidvhfoBEkv3GwIhJNiY879xGSbMlFEUaNrGxoq5Jt1+YGF4uZnC5E8eTyDExsLqPyQwwfheCv0nGgIh1xWZHTckvL2ge0eFoeMM+xPGKvQbKDOon8L0yTJR90zlmPMoNCwmsTxpKuRRBMKwQQqfz5a5cdPoucymMJ7Fh1y0SRAQBAQBQeDRCaQIhEuXoURR7e324QKh78cKq5ZLnL4g0fpdhS2bUgXC8u9kbsQ9ukAo96KNi1seIhC6K8xNGrANgQBfzTM8CNW9YcHm9G/FmkD4ZKbMnWgDTGICJFhTpxiuxKm0rgOTvzEG6aZtFdYvTPWYaO58LRDwcTwIKQIhTZ9oAsHhsszOm/cLhNDRCqPHy4wYYqNXUvxBm9Yqd8JVVm+QMfkp1Mr/eAJBE0zffCsTlibIVJvKEUkQEAQEAUFAEHgQgRSBsP8k1C2v8stqiR5tVMODkCYGodarNs6tkLkYJzFxvEKf/sZA2rmjwsYtjycQ3utlQzku8e0KmW5dbSxYkLlAeO1NheObJY5ckqhQXqVMIMz9KXOBEDpF1iP9nbxV3KxwJcLwICTHIPQcqLBstsTJMIm6LyiE7ZM4fFPCwx2KFVHZsdsQHe5+Ko38VX7cmyog9CmGn2TOX4B6rypEnZXYvc+YYnhUgZC3so2oEzLV/OD3v4wyP+ygsGyhxMU7EiVqKQTKqQIhoLRKvTLpYxC0KYZWdVSm/iTrUwwTxxjBjs262Ni5yJTiQXi+tsKajf9soKj4SgoCgoAgIAjkbAJS3cal1FohRgyCtnxOVZJc72HgX0Dlo/aqvgzQx1ul90CT7pbv3deGPZK+JFJyUVn6k5wyxZCRB6FKbYUXaoCbM9yOhDETjMFJCwCsVVfB3Q5uOKucWp+5QHBxUxnSW9VtmBQYP03GqvBAD4K9E4zsp+j5vbxgxEiZ6Lj0QYp1n1co5ATfLJFxclYZ2k/ldgS4OMMEbXrirtGBFjuYMErRYyTCT8CsX2VM9jB6sEJkBHh6qgwbZSI2jscSCFoZ44cpTJoh62VoqWxNhVdqQ1w87Dqk4hAvp0wxIEGvPjYcMQIvNaaaKJgwWtGFgI8PDBokE2czbI0cphATDW7uMOdziTNXRAxCzv5qitoJAoKAIPDPEtCXOQ4YbGPpApnDp+8fNLRoeG2wjLyTvqLOzhAfC4lJA9CTNqNDTxv/m28IhIcleztSlgQ+LK/2uasrREWl7jOQ2T3aSglnJ7hzT3szu0ezHx2NHseQ3Unbr0GWICY2a5Y10eXqcn9/JXO4G03KSoisWRS5BAFBQBAQBP6LBHSBoA1w1WsoPF8HBvWTiNNGmaeQTGaYPNYYVbdtgl9WPt4+C0+hqqIIQUAQEAQEAUHgP0VAbLX8n+pu0VhBQBAQBAQBQSBrBIRAyBonkUsQEAQEAUFAEPhPERAC4T/V3aKxgoAgIAgIAoJA1ggIgZA1TiKXICAICAKCgCDwnyIgBMJ/qrtFYwUBQUAQEAQEgawREAIha5xELkFAEBAEBAFB4D9FQAiE/1R3P7ixnr55cXTMxaVzpwWRFAIWgsoGc+TAnkdm4l+wGH5+fuzdsemR7xU3CAKCgCCQEwg8lkAo5ydzLExJ2aVPa4ivq0RhF2P/hIt3VC5Hafv7pSZPZ4kpde1osyw+W9rt7Sjpx0T/FZG+nKwYL+opcytGJTwu9V5nB4nSXkb9b8epnAh/dLtZKTs78xycU59JX+xi/u6oJzJboEwdmjSsy9plP/HX8aMptr5qZs8fhxNYcC5rLIq6SJy8p9+fqGJPeHPvsbO4cWAx8xeuSWepUNGSnD15LAvWLbzyTnsC/PPw6fihWchvZLE4e9O5S1f27NzK5nW/Z/k+kVEQEAQEgZxE4LEEwuQGdoRuSdAPZUpOAZ4SZdxlyuWWOXJT4deT92+xWMZH4tDNrA02D4NUzV+morfEpwcefSvHzuUt7L5sY+f11K0P3ZwkqvvJ5HeTcLTA1J33HKf4sAr9A58H5nfl9IVH2PIxgzqanX3o0qU700OH3Pept7NEWLTGKGsbZ4WWN9Fv76P3x9+Fzs7Zh8S7N/XtwdOmoZPmMLJ3hywXG1ihEdUC7fhu0W9Zuse9aE0qFzDz+x/rs5RfZBIEBAFBICcS0AVCizJm9l1T+LiCmd9P2vjfaeNHvn2ImS/3GwNlCX8T569YiVUlNIGw8EgibUMsLDlmZc15heSh9q0gMzEJajqBEOgjUc/fhHZowJcHUgdebQvhN0ubaJDPxJy9VnZdV7Bloh9cHSTaljXjaVbZfU2loDO6QHAwQ5PiZpoWkPn+oJU/Lxm1ebeMmcXHrdxNBE93CZdElfN3QRMIlyJt1C1sZu8lGz8et2FNKrdKXpnqAXI6gWCSoXYhE++WMPHdfivrr2ReT0mSeLdRAbo0yc/CtRf55NezJKpgtphoVjUPQ98qwk9rzzFu8bmUZ2Jwu9I0Le1KyxE7aV3BhXF/3qbNC/nZdeI2R85HYfZwpb6/md8P36JGkCeNK/np90755ii3kna+9HW3p0OTAhQp6IZ/Lom243dz+a7B4rnq/oS2LsoPK08z548r3Ik1+rjRy28SHXWHzWtXpNSloLvEcwVN+r+XHEgkTDUEgkWGyk4qTSrakRAHY3ckkqjAi0VN+DpJVPSS2J3keUl+bjJ66D29falQrSq++YNxd1D55tNxxCQY9QwoVJJW73fh9OFtLFvyC/Fxxh7TjRtUA4+SlCgRyPzPpxIeHkaBwiF4+LkTXKYMJ85coaCvAwt/+B77XE40erGFft+BP37hXLghoho0eRVnF1fKVqrBgV1b9Gu/Lpyr/z+4an0aN3+NuKhwvv96JmE3rqdU3ezoQfeefZgyZmBGzbnvmupUiDcblmXhL0uylF9kEgQEAUEgJxLQBcL4xnZsOmZl+TmFkfXt+HZrAifjYF5ze95bakwJ1CttZt+RRCKSBMI3exI5HKEysKaFlSdt7Et6G89IICQ3fF4ze95LM8UwqqEdK3YlsO0W9K9hYdFBK2cycVG/HmQmLkZl2VkbvWtaiI9SdIHQqJQZL6vC938pfFzLwso9iRyNgc8b2TNwfYI+ZZAvr4xvnMqeW6ouEC7esrH0nMKbZcxYE1R+PmEMmBkJhAoFTVRyUpl1RKFDFQt7TySyJ+LB3dm2YX7iY638sPEKrZ4rQFBALgbNPU6tkNy8Ws6Nnt+coGqVfAx7wZ3Gow5RqlJhBteyp9WUY0ztHEwFNZzan1/mix4h/LzxMmv23sQuwJfOQQ5MW30hpeBXm5dh128HuZgkEIrkdWJ+7xCq99qCxSyz7/O6lO7wJwGFfZnyogctp53g/RbFcAy7w6frrul2MhIIyQUU9zeRcNXKWcUQCLnMMKyamf6brBTLa6J/kES7NamCL6sehHwFi/DKGy34JHQcTp756fZxX8YP6gqyIz379mfq+KG45y9HxzerM2HCTL3sQaEzmTyoG4kWdwaMHMvoPh9QvkpzLhxZQ2Cz3uz4cTR9JsxmYt+OKXxMvrUJyXWCPedTB3vtw3s9CKpqod/Aj5kwbjyYctHu/Xf4evbsdB08cNRExg7pk/l32GTBxckJp9ylKR/oxIqVq3Pid17USRAQBASBLBFIEQj9VyboNwT7ypR3hbmnlEwFQvIUQ8uKZk5dUth7zXgDfBSBkFaAZKW2XWtZmLEpUc+adoohrR1ni8SQSjL9ttoyFQh7LlvZcV2lahETAWaJn48bA11GAkGz33+dwUdzVw+sLNN9XSaudEmioF8uPf/zlf0o6JWLQd8cpUXbSvz0za77mrpsdj1adttITLwNySSzoWOexxYIn3Uvywv9t+onPP06vAovDd3O2gk1GDb/OJfCjLfxZSNDKN1xq/73owqEFh4q828aguHe/nsUgdD4lebMnjoVO0cXeg0ex/iBXTEHtaQkB7lyw1BfH/QZxZi+xlTAkL6dGTXhM/3vtj2G88204bpAOHV4NfkbdOXwb1PoNW42UwY8ukDQbPYbM5Ml384gLPwWkbfDsFrT9+/AUZMYO6R3po+p7FuaD9u+gZ2dPfM+GcWtyCeLDcnKd0LkEQQEAUHg7yLwSAJh75FEIpM8CMkCoUVFM6dzmEAYXEmm/70CwV/GNzbVg7D7spWdjyAQkj0pWemIga1Lcuf2XWYsv8Crdf2pUMgtywIBk8zGBwiED4McmP4QD0KKQEhTUU0gvD9lH+euxdxX/UcWCO4q88OyQyC8yOypU+4TCHlureXi1fuP9EwrEJIbkZ0CQbOZv2hZGjZ/DVN8OLNmTk/DysSAEeMYN6xvVrofVc7Nu6/X5NtFP2cpv8gkCAgCgkBOJJAiEKatSeCaFRoUN2OKsPL7dfiyqT1dVsUTb4Oxje0YtjpBn3PWYhA+2ZXI+Tsq/atbWH3GpscwaOnNUmbirSpLtCBFVf+P5MMh5za1p83y+JTrXyXZj7NBSGETzmE2NmcSc/deOTMHT1vZdwfqFDQR7GbEIHStZ8e3G+OJtEkU8ZOp66Dy5XmVaS/YEbo1kavRKh2qWdj0l43j4Yo+xXAszMa6CwotS5n1Y5qTPQiV88rUCpCZssvwKGgegw/q2TF3UwJxVrC3QIPcsOLig7tz8bR6vNV7PQlWlbefy0epfC66QHiuSiHKcZ2JO2Io4u/M7O5B1O+3g859a7Jq1k7O3Ekgd/H8LKpv0z0In3QJ5vc911m2/TqtWxTH7k4sX6++oPPUhuhXmgeze+lBtKooKmhTDBkJhHYfVWb7kmMcPR+FvZ2Jrg19mLzUmGKo3uR17KzxrP99aboGaWWknWLQOGhTDC0yEQiTKsr02aOk9O+DCGlTDE1fa8WsySNxcfeiS5/hjB/UDRU/3mtcgPkrdyKbzDzf7DVW/7pQN/OoAkGLA0k7xaCmiVTUphhG9TE8Ddp1Jy9/vFzsuXDuDLJsYnDoZ4zs0yml+h6+AbRu24lPMwjkzKiNkk9pmlfNz29LU+M6cuKXX9RJEBAEBIHMCKQIhI1nFVoWNRERrdBjneHG93KUmFzfTh+NrFaV9knTEJMa2GFvUnGxl/Uf2LbLDPd78g/u183tMSERfkfh442JzG1mn64OUXEq3f5IwM4EsxvbG6OdCu2Xx6cEC2ZUaV93iQm17PSPdp5ORLZIzDhg0wftLxoadrQAyc6rU+szp6m9HlyXtp4flrdQwgvcHO6vv2Z7djM77JBItKp0WJWAxQxzGqXW84OV8emWeN5b1/dfDqRHkwL65StRd9l1+A6DvzmGbDKx//M6enNtNhshH25IuXXfrHqYZYk3hu5g1ivuukDQ0u9T6pDH2aTXP7jTOv3auw3z0/u1wHTFBndcR6AmELqVpeEAY/ogbVo9sSZ53ex0wfbWsK0cuZq6BKX/xNksnNKXs1cN174mkjQRlTZpy1M1gfC6u8q3SR4ErV/TLlsdUseOQBcJNc5G2z8evApEEwhvf9AWi8lHLyK0fycSkqJTewyZhIt2/jjwzadjuHThvP734D4fMnri5+nqVK5Kc05rUwz1u3B46VR6jv2CqQM74ebhRfeB49LlnT66H3cibxv8Og+gQKFC+t/JQuGdnmMpmNdbv7Zv+1qWLTaEiabG+oydxfyx3bkelbUlun6l6xHsa2PNnxvv6wdxQRAQBASBfwuBdFMMJokMVxE86vVHbfyD7GdkJ/ntWXtjvjdpn927pE3L8yD72ioKLX9WF14+Sj1lzbj2Zp9BRc0mCWsGyzVMsoRNklKmGJLbp+W32dQs1/NB/B9kx2Qy0WngFE7u38yapT89avc9cn5NIGgxCHOmTde9IYrmwkmTtLd4VbE9cXsftWKa10FLKd4GyZlB4yexYPogzly5f9rjwfYleo6aoa+uGTegy6NWQ+QXBAQBQSBHELgvBiFH1Oq/XIk0MQhPG4PJZMZm+/v3f0gWCFqQYs5OEprQu1fAZK3OEhY7OxITsuZ1yJpNkUsQEAQEgadH4LE2Snp61RMlCQKCgCAgCAgCgsA/QUAIhH+CuihTEBAEBAFBQBDI4QSEQMjhHSSqJwgIAoKAICAI/BMEhED4J6iLMgUBQUAQEAQEgRxOQAiEHN5BonqCgCAgCAgCgsA/QUAIhH+CuihTEBAEBAFBQBDI4QSEQMjhHSSq92wRcHT1JKh0MLu2/ruOgtZ2tVyzbPGz1RmiNYKAIJApgb9dIBRwk6iUxzg6+EK4jZ03s7ot0d/dczJDJn3BjzMGc/Jc+tP+/q6S6zd+JZ1pxZbA+t+XP7C4OnUqsWHDLuo2foX1K/9HYPHSJNw+x8Ub0ZlUUWbopC+Y3b8916zGxj/JqUQBd46fz+QYyidseBVviR1hqf1bwlvWd7E8dCP9RkjJxXzZzJ5jFxKZfDDjz5+wOjnu9tz+BXj97fdZt/IXjhza/9Tq16DNEKqV8GZ0/4/SlVmmUi0O7dqUpXpUqPE8DRo15dMRPYj9+7fKyFKdRCZBQBD4ewn87QLB21GisLtEflcJT1RmH885g4FPnnzcvJrJoQrZzL5U2YqAzKtvteaXBfNRFSvHMhkoBo+frv+o95owm++Hd6JMg5bsXvUjEYnpB/57q+njX5Cbl8/dV/v2L5biy9+OZnOrUs3de5pj82ImHM0SC49mPKI42kvExOcUwfi3YUkx3GvkND4f1YtY7UCTp5hUVcLFyY7omPSbNvUcM5upg1JPv3xYlVzcfenQrRdTRvV/WFbxuSAgCDwDBP52gZDMqLSPTHUv0gkEkwxdK1ko6y2x5ISNFadt+lkM2oFPd+NVmhQzseuSjfmHjeu+LhLtgs142cHG8zZ9m+RlZx/8Y9vivc7YTPbcPL2fIuXqsX/NPPYdOU2N+o0pULioXrWfv/yE5JMb7JzcqdfwJSpUrsrRPZtY8tMPeh5H9zxUyC9R4ZU+JETdZM4nE0m0audVSLzYqhNlypZl75a1rF+9hNh4K7KdKy+98S5BZcpw6fQRVv38DdfCk4/+lRk8bhKjB/RK9/g0eKUN1apV4/COtaxe8RuxsXEMmDibcX0+oNZbw7h7YiF+Qa+x8ttRIJl5rvnrVKpWizPHDvC/72aToKCfQdD0tbd1uz98+UmK/Zffeh9HJyfy+TqneB/Sfn7vc6xtvaztApictO2iE+JTz264N3+rIBO5nWVKuEocv2MM+FN2JKIJhELuMp65wKLC/ANWTkSq+DlLvB1k1vMt3pPA+TSejpdKmmhe2ER0nMq07Ymcu5vJt8w5D3WqV8bdLz/FihRg+S8/cvTAbv2GqnVeoG6jl7l56RQLvpxBTLzRy1Wfe5W6DZ4nISaSxXM/5fxF48yL4OoNeaFRU25dO8vaFYs5f+4COLjRpHETbGZnypctzcpfF7F/1xYKVmiKfGkLZ64b3pimr73L5jX/I/JOFMXKVKHZ628RHX6F335ewLUrhgD1KVSW+jUrsvDbr1Ia5OLhzXNNX0WRHShZrDCrF3/Fvn2HjPpUqEaD5i2Jjwpn8fxZXL8Zpl9v1b47YRFRlC9Xjg1Lv2Pb9p0UDCxO0YL5KVmlLhs2baF29Sp8GjoMZBOt2hlbPasJ11kw3zhfovzzb1KigC8Fi5Xh3F9GeSt/nMXt6AQCg2vy0mst9HNS/lgyn92796TrgCETPmdU3w/TXetSxYKjVWXiHuFayORpFR8JAv86Av+oQJjc2I5ZGxM4eRe6VrWw9JCV83dVBtewsPaUlW3XVTpXtHD8po0/zyu0CDITeUfh94sKHSuZscSrzDxoeyD0fmNmMmFQF3qO/owpgzszaMQYxgwblJL/tY4jWTF7KLFJVyrWfhUn9SYbNm0iqFoTKpTyY/5X3+DqF0jbNm8yPXQMznlK0r1zG8YO6ccb3YdzdvMv7Nx7kBpN3iXu2gn27N3BCy+2JC42ho1rllGwSAk8vHzYtyPZlXu/QCj9fDsK2l9m2bLVVG34Oq5xF/l9ww7a9pnKt3NmUaqIJ3YWC9Wav82nAztRrFRZXF3d2L19I8XLVKFytep8Ozt12+KuE2czI+m0wrRwsupB8M9fiArV6qTcejfqDmtX/PLQhzsjD0J5L4kR26yU8pN5Ib/MtKRTMvVB08uEX5SVwwmpHpF5ze14b6kxmLcPMfPl/kwGHY9A+nbvyMQR/bB38eLjfoMYM7gXru5edProIyaOGIoq52JI6HRGJ/EYOmkGI3t31e2/+EYbfls4F7c8xWj5ahPmzJyGd0Agb7z+CjOnTQInXwYMGEjo4B6Y7B3pN2Iio/t3QZZlBoXOYFSfzrqd/uNnEdr/A1TZiR4f92T6xNHYueTm477dGTtkoJ6naLlalCpehF9//CaFo1fuANp3/pjQoT0xme0YNH6mXk9FVRkUOp3QAT2wqmb6jfmECQM/1M+m0E6i/GryQC5fvUnnwVOYO+FjAktXpmRBD3YdPI966wQ+NTuz67cZ6Qf20YMYNXhMumsZeRC06amRvY2TLJu/0YalC+emu0crf2TvDumuvVHKjLMFvjogBMJDvyQigyDwLyLwjwqEec3teW+p4fbM7SFTTv6Gf/oAACAASURBVFZYGY4uEBYdsfJXhMp7IWYuRaisPWejfWULP+1IIFKSqOYvow0+DxMIoYO60GPkJ0wb2p0ho8Yzakiqe/RegVC/3Rj+/DpVQCT3oyYQXqngyLwVxtvW6+9+wM/zZ/Fh7xH89uOXXL50EYtjQZpX8eWXdTspXr46TRo24vcVv+pv3iePH0nzSNwvELQf3fGDupIQH4/mDh40dgRjBw3l7Y69uBwRw4UN3+EZWJGGTRoxZnB/kEyULBOinwqZO19B/AMK8O0XU1LKeFKB8LjPb6ZTDHYSA0JMjNuZOohkJBDmNLHj20NWYm1w8LqiHzX+wOQRSKuXnueHubPS9YvmSXmvZUP+2HZCv/7y2x0Z37+TfiR2n5GfsH7lT9y9G8OZvw4TFxdP5edeJcDPi+OH9ibZacfI3l10gfBhx/f5fKpxMmRyv2ueo4HjP2fy0G44+ZaiYn4Tv2/di5y3Aq/XLsrhoyf1/E1bfcDE/sZgWrRcbUoVD7xPILRq25lPx2kiQmLopNmM7f8BVquN/v0+5reVRiBj/Rdb89X4nvrcf9oBunilF7h1cjO5C5ehuL8Te45fJeHaUXxrdGTfqjnpsA3JokB4v9cILp/Yy4WLl7h26Qy3bhknYCanjATC4z4v4j5BQBDI2QRyjEDI4ylTFoVVtx4sENpWtLB6fyJXrFAtQKa8Z/YKhHrtxrD+60H3nSKoC4TyuZi38nC63kwvEArRrLIP/1u/MymPROlKNalR5zmuXjjFb4u+TbqeFYEwjLGDhvN2hx7k83UgdMx4atSoS2BeR+b9tII6zd/BGn2NLevWEBgUQvWa9bNVIGgu69rPN0tp652I2yz58euHPsnZIRC0Qkp4S7xQyEywB7T/3Th6PMPkEchbLz/Pgm8MgZCcNIHwZoPifPHz/cdea3n8CxWnas16FC8awNihg3WBYKfGsXntivTF3CMQ0n7Y+P2hHPhtJq926M2C2ZMJDwtDzlOBukUt/Llx+33VLVSmGiFBJfjfPR6EBwmE3l3fY9KMeffZyWiALlO+SrYJBK1AV08/atZvRLmKlRjT3/C2JCdNxIzsnfW4hYc+NCKDICAI5FgCT1EgSDzvLzMjaUpAi9Oa8LwdX+xK5HSESudaFn7Zk8i1mAcLhPqFTJT2lFh51ka3ihZOXLM9lgdBO7VQkiVebjeU1V+NJFYCa2Iileu+Qa7ofWzY/RfBlesQElyU+V9+qU8xZCQQWrbvy8mDm9m/cyvVW3Qj6tQODu7bSZESwUhqHCdP/EW+svUpX7JAmjfH+wVCpVZ9idq1lBOnjpO3cGVqlVD4cfkuWnXoQWDRoozq24VW7Vtz7vRNtq5bzZt9prL669HcDg+nfK0XCCpVWhcIkmzGZJL4YOxMZg005p61diWnru+8wKwf14Gq6G+p2Z2mVTPRd6cRG6L1b7ogxTQeBO1UZbNkTDH4Rls5Ei/p+bX7nveXWHtFxcECMxra8/6y1MC697oPY+vyeZw8nRSA+QCB4OruSadefZk4tD9me0eav96a/30/G1W1p0rlYHbv3q1f7zV8iu5Z8C1eiVrlSvLLwvk4OLnS4LnnWbZk8X0ehHt5DZkwmXhrLiYO7KyLShUnenR9l5mff4Fs50iTl15jyY9Jg7ydB716dmFK6OgUM9oUw3sdP2LqqD6Y7JwZOGYqo/t21I8IHzRhBqEDP0LBTONX32bloq/Rom0eVSCYLRa9vAHD+jFuRCiK1apPYWip+4jP+DK0NwmJiUnPiYna9RuwbdOfKKpEm/7T+Wq0MY2iJYu9Ex8PHs34IT3ToXiznJlCdirjdmT/M5Xdz6iwJwgIAlkn8NQEgizDiFpG4FtkrMqknYmYZRhWyw57E8QlqgzdZAxmHULM/H7axvkolReLm7gWpbLzihGMWMhdwtdBi7+SHjrF0LbbQL75dCxvd+7P95+Np2OXj5g9czrPvfQ2gYFFUiip2uqKKSORzbno2KM/uRwdiY7QghEn6HmcvAKoX9KBpZtP3Uf2nS4DcHNxJiE+ltlTk378ZTs69RyAnZ09iYnxLPpsNLdikn88ZTp078WcTyals/V+90F6uYmJCXw9bSSJNpVSDd+mZqmCzJ46htoN3yPy1kkO7NpKsbJVeL7Ri5hNMuG3LxJxM4plP3+LT/V2vFo1Xzq738wMTQkwfKtTX1ydcqFGHGD210uy/pRkMWenihYCnCS0eYEh223UKSDjYJJYfcYGFon3i5v46rBVX9HSoZwxcCWnIRuMuIP+1S14OkhYFfh6fyKnIlJXOXQbOI5Na5ayf9f/2zsP8J6u/4+/vt/svWRLhIQkJEQksXetmqVqVSlq79XWrK0Ss1YpRUurSlEU1do7Iom9EkGMTNn7e//PvTcyCOHf0urvnufJ8+R775nvc+457/P5fM755EsGTMvSqnFtftux5Zkafjh0EtaWZmRnprNh6VxS0mVLk/d7D8POzo683FwO7tnC1cuyVKhB6x5Ur16NvJxsju/dxPmwy2BgSedO77Hl+0LDwqIF9Rr6OQ/P7WLfSVn1JIbm7bvh6V2dvJwsDu/bzoXQQiO/gFa9cS2j4ecfNpKTm4dIED7sP5qs9BQMDAw4s3MFx8MipXze7TaQihXKo8nLYe/P67hxUx57A0ZP5esF04q1t6KnNy42BlyOjCUnLgLL6p24enwb+gaG9Bo0rljcY78s5VJkvPSscduuVKroLv2/esE0iYD41X+XgNq1EUlc5NUw9uz4WXqvo2dAq17j0EQdZNe+4kcj57+jy4JTOUSn/u+cSHlmwCkPFAT+gwi8MYLwd2FnIy5A4kTmoEY3R8P228qk9Hdhq+Tz+hEIaNYFJxsztm5cJRGEQhXD6y/7r5QwZmoQIQe3cvDIyWeyWd1ajwG7sySCoQQFAQWB/w4Cbx1B+Kq5rmRs9tv1HPZGKeTgvzMU//daYmHjQMeuvVmzZPZb23hBEKhqruJC0lvbBKXiCgIKAs9B4K0jCEpPKggoCCgIKAgoCCgIvH4EFILw+jFWSlAQUBBQEFAQUBB46xBQCMJb12VKhRUEFAQUBBQEFARePwIKQXj9GCslKAgoCCgIKAgoCLx1CCgE4a3rMqXCCgIKAgoCCgIKAq8fAYUgvH6MlRIUBBQEFAQUBBQE3joEFILw1nWZUmEFgX8fAuLljF37jWDzmsX/vsr9C2vk6vUuGTGnuB+T8C+snVIlBQEZgTdGEFwsVQjpAlFFvAaPCtBh4ZmS79oXJ5wN7fSYcySLq6/hjLWbfWXSMlN4kCi7431TwcTAnPLW5Qm/c77UImtWasyd2Jt/uY7d+gyTyhJI48e1pftUKLViT0V4p21nLPVT+GnLXsr7NqSWT1V+WPtVQayRM5YTEX6Mnfnus181/1eNb2RsQvN27/DLpl+kpF0+Hsrmb4t7Nywpz7Z9PkdIiGTX9h9fqsgmrTvx5+6tLxX3TURq3LwVB/f/9kxRbYfOwcfJlBmfytdvi6Frn4H8uLa4D4uApp1wLecgvS/af6XVXa1nzvgp09mybhm3bsgOsl4UPLwDaNW6JQvnTi8t6t/yXq3Wpkvv4i6q74fv4XDwrRLzr1zNH1XWA9LyTHAoW44TB/fS6YNubP3phxfWR9fEhc+mTuTLcZ+QVeSKlkpeviTeCSM2ufAqahNzO5q815PUB5f5Y+/uv6WdSiYKAn83Am+MINSpoAXxeZwostgX9eZYUsPKGKqIS389lyE1rdqOuORHhN0+/Xdj+sL87C2cqO/egJ9ObSy13PYBH3LxzjluPbxSatwXRShbzlV6/fHQgcwYV/zq3b+UcX7ij4d9jqWxPgvnTqVdt36Y21Vi3YLxBVnrGxqRnZEmXXD1JoLorKnfiN7M/2K+VNzEeauYNb50B0P6hsaQl01mlnztc2lhUuBqZo4r7vq4tDSv8/2E6XOZPaXQW2nRsvR1dcjMLiTjkwNFd9XFHTFZWDtgZGhAp4Gfsvjz0vF6kv/wyUFsWDKdx0nJL9U8tbYOxkZGJCc9fqn4fzWSSqXC0bkCaJnwXmsfftl5lMykh8Q9Tisx63pN38VQF2Lik3Cv6sVP69bRd8BwvlkWWGpVzC0seZxYXCrQstNH3D71I1eji48r0R/I+CmzmT1xZKn5KhEUBP4JBF47QdDThQm1dDDWVUGeQGoexCRoWHYxD5Eg7I7Mo0U5La7G5LE0RHbz27eaNs5m8pXKs4/k8MRdT3krFR976eBsoiIyUcOXJ3LIfNGio9KhW4MBWBlZEvf4Dr+F/kJSehJd6vXH1MCM3Lxc0rPTuHL3POFRZzE0tOYd73dxsnQiOu4m28/KO8na/p9wNeIsXfxbk5T6gJ9PfkdOXg6dAt5n65mf+aBef346topa7u9w5toBBJUebfw/wMnKmYeJd9l1egPZAlK5Olq6GOsbk5iWQGZ2OjvOfC+V0aJGd9xs3XgYf5N9YTtJzUxFJAhi+8qaO5KeEcfB0C08TH3+JKxnZEqnDwfi6uZG6uN4vpk3gZScQoAmBwY+QxA++Hg4bh6VeXD7Br9uXEZcsijiUdOpZ388vHx4dC+Cb5fOE7sOHV0HAuzjCeg9F5Umk68XzCItLRWRICTlqbn45xYaNmyMXtlqLJ08GG2bynzcvaPUvuvnd3H4cGj+GFfxXvd+eFarwePY+2xePpv4dNkN9CcjJ4G2Hlbmpvz50zLOhF+XnrfqOgAfHx8ex9zjwK6fuHFddqncufcQKnl6k52Ryokj+zj+5+88jyAIggnv1i+PS92uGOpr89O3y7l7R3b8JJULXAo9y4lD+6T/7cu50aBZW0zNrbAwMeDE3o0cOxlCxwGTsDIA+7LleHAvSoq7fulssnM11GzUlobvtCAjJYHd234g4oZM7j7u25dMtRnlK1Tg6P4dHD34O+gY8mHvT8jMVeHh4U5o8El2bdkgxe83chjfLJKlMF36j2fLKrEP9OjyfksM7Dyxd7Dnt5+/I+x8MK7u3jRp1R47B0ce3o+W0qxeNBPU2nwyXCYMQtYDvllR6FNicuAiIiIf4VzWgSM71nP8dHB+38CQWatYNrGQINg6OlOnYTN+2SSn7/zJOHatCyIjf2w9TZRM7atQt1EdXJycibh4lgpefmxZOYu45KwCnB9E3WLXL4U7cje/FrRp3RIDPW0unj/Fr1tkAt3po8FkJMVRvU5jbl65wOZ1y6XnnlX9aNauqxT/2N6tHD8u+4coV6UB73/QCQN9PS6fO8y2Irt+QduCQR83YOXqHQVtrVa7MfUbt8TEyIDwk3vZvWsPvo3fxcbMhIcPYzC09iDk2G906daZ9csDMbVypke/QViYmxIWfJLdW+Xvt2ufYZiYmhViL35Fusb0HTwSUwsrsqXvXeBSyAlOHPmzoPzqzQcRc2w50enyfCeG96pq0aasFkP3Z0suvpWgIPBPIfDaCcKThj1PgrDgaDZhjwUG1dVh2/lcHhWRGExooMvCI9nIbnagfUUtVHkC2yM02JuosNVXERr7/Bvg69cZzdWwb4hNS8amjCcZqdGkZMoLbEkShGpu7yKkXiP84S08XepRycKAHed/p2WTKdy/sZ3wu+F4lG+Ak3Y8v9+4RN8WE1izby7vN53IoWNfUtd/CDuOLcTFuiJ5mmzuxkfh7VIbWzNrDoTtlMotSYJQo2p3hORLhNwOw97Gm/pOjvx0bq9EEBKTIjhy7QTurs0xElIJiSjZhbGYt7WdA9369mbJrNmo1WoC6jXl1JHfC8bW0wShfvue6GfG8/u+PTi4+RNQ1Y3t235AFLH6VK/EpnUbsSlbkc7dP2LZvMno6bsw4OPGLFnxLaZ27owY0ZcZn4+XCMKhvdvwcK3C/Zho3u3SlzmfFi4wfnUa4Vgmlx07j0l1KeviRtuO7VmxYD76xuaMnDCTuRPk3azorXDOZwMlZ0bjZq9kwaSBOHo1IqCyIz//KNanAp07tWbZ4q+wcqtOy3oBbFz3NToGJlSuXJmwc6dfQBDMGfdpP+YHBmFg4cSYcSOY8fnYAnxqN2mFmakZe/NVDOXcvWnTriPLAqdhaGrJoJGfM396oQTmGQmC2pxBgz5ixbIl6BhaMG7iRGZPlPOfHLic+ROHk5GrYuzsZQR+1h90jZn4xRzmTBiGoFYzed7XzJ0whOzsbCYHzmHGuM+ltMOmfsWyacPIEwyYMG0SgdMngZ4Jn0+bI3n6fBJeJEGYPHMiMybNKog7JWg5QZNGkp6lYeS0xSydMoQna9HTBEGtrcfnM4KY9fkwtHT0+XR6ELM/L5Q+PO1h0qKcP86WatIMylJG+zH6BsaoshI4eEhexE1sXOnYvi3rVy+Sfot5jv9iHnMmDpd+fz5nOUtmjiMtLY0B42ax54dl3L13n279x3LxzJ9cCA3hsy9X8NXU4aRl5vLxuCA2BY6RNhJF3VHXbNCM00XGf0kEYdjUxXy3eDKPHyfTc+gkDm9dzmOt8tTxq8jjbH1SY2+TnBxPo0aN2fD1Epq0eo9Dv/2CBhWTA79mzudDyM0tlMxMCFrN7LHFpUrPkyCIbS3v6Us54QKHrhbmYVdGjY+pigOReeS+IanbP7UAKeX+uxH4xwlCr19l+YBneS2yHuURkV4I2NMEoYqNmo+9tDkRrSExQ8PBOy92D2Nk4kbP2u0IjTpPdnYqIZFnCzIviSDU9hvGyWB51+ZoWY66nk356fhaiSDs/VPWlwqCNv0afcCaw5vo0XAYP5/dja2pJWpNAs0q12f1ofWoVDr4V6yLuCewNnMgKzud38Nk74klEYRhraeyct8ccnKLiyCLqhi0TLwJsDbh5AsIgqGxGSMnzubEof0IgoYj+3+V3BA/CU8ThLYf9MLUzJzo/F10JVtjVm3YSBUff+rWcOf6vRS0DUxxd6/Esi9lgtDY+QF7r8t9NjloNTPGfpJPELZjZutMVOhBBk9dxqwiovenCYKTixstfMvwzbZTz3wdRRcbnzrNuHDqAE079uHR7SuEBcvkaErQEqaPHQ46JgyfMIPr54+RkZHJ8T92k6sRXkgQerbx5PvdssOhJ/V/UomSCEKjpi2lnSPahoyfNJ15XxQSiqcJgtqhBr3a1CQySt7F12rShrmfyovFlGnTmT51ivR/1TotCD+xTyIIYz6bzPzpn0rPGzRrw/E/95KXl/tcgjB0UHeWrZR38iPnrGJREVXAqxCEoiqG7sNmsOvrySTnD7+nCYJYlm+TbhinXCA0IpmunVuxauXXBX1XEkEoa6UmRccOO70U9A1M0Mp5zB9/HpbSPE0Q9IwtGDJmIgumFWL7JHORIGxdNZO4pAwqV/MjPvYhj+7fY/LMecyYJKuxGrQdQOTBldxNVdHyg77YmxsQGXWXh1FXuHpVlkCJoSSCULTuLdr3IP7+Rc6F3qBju3bompoRFhJCTnYm1Twd+HnbPozMbPGvVUvKr06zNsz7bPDfQBAucujqy6m1nvlglAcKAq8RgbeKIIg4qFXgY6emoZMWCSka1l8p3Qe9i60n7uXqcf/u71x4IIuUSyIItWoM5fS5pdKi+iKC0LdRZ9Ye/oEeDQaTkqfhj1OrsSlTESsdHYLvXaCZX29u3jlKZMwtKpfzw9G87BshCPI4UeHs6oFHZW9qVHdlzvQ5BcOnJIIgTrZnjv1RbIiJBKGCwUN+PVncgFMkCE1dHrDnaskEITJfnD4paDUzi+yiSiIILf1sWP3zs9KQpxcbsWLNOvUlJuqyJNIVw5SgxUwfO6KgzjaO5fGqUYcq7q58FTg9nyD0Yf4Xss540rxVzBzfH0Ewp2drT77f83oIgsrel8aVdPnzcAnEpwhBKKj4UwShaCdMDpzLjHGyeqCoBGHY4O4szVcVjJy7ikWiJCI/vBpBWMaMcbL0ocewGfy6cjLJ+ZvYkgiCqZUtHw8YTrLGmA1zhpMn+oPOD08TLVGC8DoIQjF8ZgUyY6IszWnYbhC3/ljOvTS5TqJrau8atWnWoQtfjh9QkKx0gvAh8dHhBAeHM2rMcG7dTeLWtcvo5eaQ+iCcyEwTRn72BUtnf0pGZjbjAlex8C9KECrW7IT29Z+5kliIZ7GPUfmhIPAPIvDGCIKfkxau2gI772rI1UCOBskGoSQJgp6WTATG1NVl+XFZxSDq4vwd1GRnCYTFC7SupEUFYxVfhciCURMLWwaP/owvJ48qgNPf813iYi4QGX+XSs61sCKOk3duSu/rebdDyE4m+NZJcjV55Gly8XZpgLVuGgdvnKeOR3PU2XEcvRUsSRCSb+3kRFQoVSs0wURzh+O3b1LPrx8+NnYs3TOTmhWb8jg9hmvRF2jfYDQnQr8jNjmWut7tMVSrihGERpWbse30RgQEsnOzqezZAd2M+4TePkNFx2pUsrJkd/hBScXwxEjxaQmCcRl7Bgz7lK1fT+X2fdny08TUjqqVXTh+6hTWjm4MGjWO6WMLJ0hRrDx/6jhy8zRkZ2ZQvVFHytka8svm77Fz8aaCozUnjv+JR1U/aterw7fLl2BXzp2AWnXYuflbSYLQq897rF6xENeqtejUqj5fzg0skCA8TRC0tXXQ0tames162FvlsmfPKbIyM3As50rHbr34au4UbJw96DNgCHMnyictSiIIVm41aFGnOlt/XI9dOS/eaeDDmjXfUqasK95VPDm4bxfG5mUYMHgY82dPxcTMksHjpvLlpBFYOXkweEh/Znw2+rkEQUtbB21tbQIaNsPU2JQDu7eSl5OFo1sVXiRBmDBvFYunjZLwFNsF+oweM4ylSxaiY2RJ+/c6sOnbVXK7XpEgTPjyaxZMHY6+mT2DR4xg9oRRCIIBn07/gpVB01HpmzFs1DhmTigc75NmL2LhrIkF9RGN83T19KXyx08ay7yZQeRmZ5KnEZgStJJF08eTgy5DPpvJggkDC9w1dx8dyLGtX/HoUSwaTS45+caNQ6Z8haE6i8AiUhQx79FfLGbVvM9ITZeVgc8nCEfQ09fH2Lo87d5tyab1KyRJV24efDYjiMXTx5CWkc2EuctZNH0s6enpkorhiQSh6Dw5bMoStq35ksSUDPqOnclXUwZL5Lhdl484tOdnUtOy6Dp2EZvmFapCSiIIAz6fx671i4h7nEr3/mP5bcMcHiZkMGHWIi6GhXA69AKdm1dn6dK1GFnaM2DoaBZMH4daS5vRX65gUb4EQU/fQKre2JlLCJokqkoEsjLlI1stOvQg8XYwYVfvSONKHC9yUDEhcCWzxxV+o+JTce6b11iXzw5mKyqGf3BxVIp+g8cczQxUdPXQkjC/eDeX43HQv7o2q87LC7yDtZrcJA0x2dDeXRs7w8LuEXf0YjwTAxUfVtbGWBuSswW+zk8rLY5mVnTpNYBvirjOFQQVzat3wFDXmMycNI5d2kNa9pNzlmqa+bSXCol8dI2bDy5LxnniMwMdQ5JSH3H4ygHpvUgQDp5YSbsa7UhJi+dA+E6JVOjq2tPQw5ffw3dTw70V0Y9Cefj4AS72XlR18kVLpSEu9SGJKYnSQi9NCSpt3qnWVvo/KzuFI5flMppWbY+1qS2JafEcvrCTzNwcfF3rcC/uNjFJ91HrO1HBVJ+bMbJxnom9G+93ep9T25dy5V6q9EzUFbf/oCfiMb+0lCS2/7hOmoCfhEYtOmBuaSX9/O2HNZLO9p33euHi7ETy4zh+2/wNKZlyf4inEWxs7UhOiGHLd6sQj52KBKG+7UNsWw1DlZvJth/Wkp6WJhnyXQk/R+yj+1La9t36sOOHtXh6++LuVb3Yd7Z78xqJHLbp2hc7O3tSEmPZsuHrghMOHbr1ZfsPhcZ0TxL7N2glGV/mZGXw+y/rSU6Xt7utOn+MhbkZuTlZ3Ao/zrmQcOl56y59sLd3JC0plq0b15CdnYMgGFLXx4ETYTJJ7NCtD9t/WItrFT+8q1YrVs+rJ7YTl20oSWKO/bFHtDijdYdOkuHhk9CsfXfJ6l8MO35YI0meAuo3p3JVX7IzUzl99HduXZeP/XXo2Int2546EqmtT6s27flt++ZiZYs/ar7TAU8PD7IzUjiwexsxDx9IBGFw/67EZBtiZmLEmeMHuXi+UG3m4lUHH29PEHLY/uMGiRy827FHsbzDD20h4kEyHbp9RLZGH3sbS47/vp2rV68WxLN3cadm7XrS74f3rnDqqCzpKV+tJT6Omfyy51CxPN1rv0tTvwp8v249ySkpGJWpgKWxikwtM0y1M9HV1Uedl87lm3dp36lrsbRJifEc3LsdU+vytO3YCT1dLe5dP8f+ffJ30bj1+5w9uJPU9OIieEdXL2rXrYeWWs3ViyGEBctSG9uyFanX5B3EUxsJcY+KYSuojWjawJ0/D4UU1MGojAstW7VEW0vFpbNHuXjpovSuYac+JEddIDz8Bm07dSoYky0698HJwUEyro0X4MhP68nLy6Pl+73R15HnNzHkZafz61Z5rFiWrUSD+vWl/6+d3c2Vmw8lKUfDZm0w0Mrl1x3ycdwnYWBDXTQJuay68GIVarFEyg8FgdeAwBuTILyGur+xLIvaILyxQv+FBUk2CE4P2HvjybmSf2El/8NVEglCURuEN9pUlZrJXy5jxvji9wk8qUMl30bUrVePb5fMfKPVelsLc/Nuj7NDHn/u2/VME0TJ6id7ssguXXv6tjZfqfdbgoBCEF6io/yr9+Ts+e9eIuZ/O4qOrh0+1vGcjS75cqv/duv/Da3TpX2bpuzY9exlSK+7dsYWNrzT/F22b173uov6n85fNO2o7aCWDLGVoCDwTyOgEIR/ugeU8hUEFAQUBBQEFAT+hQgoBOFf2ClKlRQEFAQUBBQEFAT+aQReO0HQMdFB20D7n26nUr6CgIKAgoCCgIKAgsArIKAQhFcAS4mqIKAgoCCgIKAg8L+CgEIQ/ld6WmmngoCCgIKAgkAxBLRyC4+mvi3QaNQaBPWbuYNbIQhvy6hQ6qkg4/RMBgAAH9lJREFUoCCgIKAg8LchoM5ToxLezhssNVoaBNXrJwkKQfjbhtvrzah6QCvITeF8iOzw6N8WOrXrxtadhZcI/dvq9zbXp2efL9iyfhqZokvNUoKhsQUd2/fi+42yI6R/W/ho0Bf8uOoL5Yz/v61j/gfq49+wK6FHNpMj3vomOgkrRXpQO6AeJ8/8ffOt6AguOTmpmH+c/y/sIjkQScL/J/QYMpOda2eQklH6fTb/WoLwroOGK8kqIlPfLMMzsXWnvH8Hwnd9+VLYuzcdgp6BMZrsJC7uX/lSaV41UrO2g0mJvcK5c8fJySl+o5ynmUAda1hz89Vx6ugs8CADTsYWTzvbRx54t1Nh1U31S1XXxNyRXh8OYdnSCS/9AYwdv4TER6dYs37TS5XxVyN16ToMc3P5Jskn4cDOpdy6H1di1gM+GcfXqwNp1XkswXsXka4xpEN9HzbuPfLCqrRu0wfD3Hi27C10KywmaPVOG3478OzFOC/KTGXozMet67J2S+nky9GxPK1aduHHH5eTmvasW/BPvTR8dVlN+ivOK3raMNRNw/yrxcfCtGoadPKHTtAlNQkvcT2G6FCsa8/PCd73FeERslMrExNLuveQPTk+CdeOr+bQBfl9QKtBNPTyIDCw0P/Gq4wFlUpNv08ms2bVNOk6aXEc/HFgM3FxMS/MpopXTVq1/ICgoDHF4rVt14dfd6596Sq4WtfA38Ffin8yYhtRKTGoVUZ8ULVnYR6CwI/hsgMsYyN32rg1lv7fdWUTqdlyX5Yr409txxrS/8cjtnM35aHoeYKu1fryY5g893StOkDKR1vHivcrd5ae5Wly2HKh8HZSHV17OnnKt8j+cXMHsWkPXtgWB8fymGseclmcLEoJnbuM4cjBH3kUE02Llt1IvnedkxflW2TBgHHjv2TT0rFEP3UzZmn5/tX3AwZOZ/fWpdyLLezz0ghC/TqNOHqi+K2hr1oPD3dvrl+7II07J0cXYmPukZnz1314P00QbD2bYevqW2zdsqvRi/jgdeQU8Zsi1l/f0IRO3cZzJ3gTR8Nkd/TPC/9agjDcQ+BoDJxPePWF71U78Ul8S5eG2JZ3I13lSFS+98YX5VWx4QDiI07y+P4VrH26kRcbRtydsFKKV9Gr51DWfyd7jSwtmFVoQoC9Fr8fL3TbXDRNNQuBxnaw6Mqr49SzgsC9dDj4sHhac12wNhJobycQdOXlCIJYp9rNe5F2/xLhF4NLa5b0Xq2ti+YpD5YvlfD/GcnIyASVWov27fsQem4vUffuk5meXORu/OIZDx2zmKXzRzBweBBRJ1Zz9OojnExVXLmf+MIaiL4dxLupRa+MRcPw/mNYsmr+K9X+g24jOXtyN5G35Su2XxRGjprH0sWfSh4tSwpzfTXMCFOT9oo39OnrwEQPDZMvFB8L4jgRw6dVNMy/pCIu++XGoK6+KZ98PIJlK2bI40CtxtDIFB0DR5r7WrP7eCi5mSlk5hRWVEdHh5ycl2AgJTRcJAijxy5kYeAIaaLu228Su3au4VHMixdG0VeCrq4e2QXXs8uZjxu/hMB5xQnN8/rFwNCD2tZ2HL93Am0tY9pXas6miz9ib14RXzs/DkXkE0ZBIC0nFS2VDr19h/Jd6DJ0tAzpVq0f35wNEve7fOT9AZsvb5Oed/Bsz/dh63C0DqCVSyPO39nCuUe36VO9H2vPr8bayJ5GFVqz59pmjHVNaVWpPetClkvV7OM3jo2hS1CpdOnhM4g1Z+e9cFx5ePhio7nJkevPks6nE37cbwb62pmsWDmLIYPGcfn0cQ6GFDpl09MzICurdKJR2lh/lfcmJlb06NiOleu/LZbsTRAEf796hAQf4xU/uVKbV5QgVHxnFFlxV7Gp1IDgn2QX8WIoW2coj45/9QxBePJ+8NC5bFgzjdSM5/fHGyEIPk5qPHWgQVlIz4VPQ1SiUwJ0VAJTqwlY6cLdNAi8rCZHgDnVNZK/hWyN/LfjropTcSreK6fhaJSKOFT4WAh4mwp8F6XGyUSgoZFAgBOS6HLcORWCSsXUqhpicqCKCSRmweLLauJeMMfoGDqQk34fx4aTiD5c+pWxVVqMIvLUetKTEhDUenjXrM3Fk6UxThWjR0xjwWLZ9W9poX2Hvty8EcalS4WLrpaWwFQvAUtdiMuCxzkqiSDoasFYTw1ORnJ7J4WpJR8HHatoOHpTTWy+RGlOZQ2fX1YjEgQbIwEHcaIXYGuEihOP5Une1kSgZ9niBEEkouMra3AxgsfZMPeSiqScoouCitHDP2XBkrlSHn7+bTGytqJyORdiHj3ATF/D2k2rsbZxolMn2Q3yr+tnEZ1eKOp6/4PhlHOuQGZGCj9vWcGjGNm/Q+8ObdCzC8DQ0JAjB3/h3Pnj0vOevT7Fxtpein/0t68Jj7gHKi169hyDra0jmrwcbpzfwa8HjxZA3bXbcM6c3E7E7TsFzzp8MIoKTs5kZ6Vx5uQuzpw7RdueU/n1u2l81OcLtIVEdpyIJPn6DnIEFd26jcDOwYW8nEwO7FjO5SjZ8+XAQbJb8BOHdhB+Rd45VfOpT+3azTA2MiE1LUV6tnLFy/X/iNELWbpoDHmaF2/7LWzdaNm4JT/8uLTYkPpU7C9juJ8OxrowPZ8gdHMRqGUtSP3+axQciFUjCAKfegjMuyYTgRk+GiaHqpEIgqeGLAEcDOBaMiwuIk2Y5aNh4eXiBKGNo4Ym9iAecN5/T8Wup0hov9GL+WZBcYmAjmE52tWyZeufZwra0LnrSKwsLCEvmZWrxIUSDM0r8G7bTuirVKQl3MbMzpND2wO5HZeOY7lqvNe+O7ra2kREXGb79jW8iCD0/GQ68XHxeLq6EPvwJhu+XyaVUa/tWLzKmpKd9oC1G1ZIz6ytHej0/kBMTMxJSXksPVu9avozRLBoB9RzaUFSZgIXHoo+M1SY6hmTnJWCi0UlKlm5s//mr8X6y8q6HVnxO0nN724bYwdiUu/TpGI3rsec4l5SpEwWqrRhw6UdVHeoQznrmsQlXeL4vRBalG/A3hvbJILQwNmbrVf2o6dtQPdqg/j23ALJp0qfyvX59or8PZjqW5Cc+TzCq2LgoGlITtfIIytXQ2zsfbb+vBJDQ2M+/OhTTE1MiXl4h02bFkpEWyQIOZlJbPt5I07O1jgYG0sEoU6dllStVkcq8+vlk6X5WQwW1k681/5jLC2sSIyPZs3afLJSvh1l0q/xYff+5OZksPH7RSQ+jkNQ6dP/k88wMzMnIeER36+bS3aegKWDB++3646piRnpqUn8uG4GCRnyZN++53T2bJwi+YApGkoiCHUD6nHj5hWsrGywsbbl8IlD2NlUQEh7wKO0DExNzalU3o3gsGAa121ISnoWd+9FERP7AK9K7kQ9eICXhzdhl85jYmSOawU3Hty/Q2xiDLZlXEiIuUVCehY1fWtx//5tNGo9HMuYcyY8DGMjY3yrVuHa1euY2bhgoqfhXHgYdQPqE3z+JFlFJA9FCYKhhS3piY/w+2DOKxGELp9M4/ety0hIKJSqvF9OoIG1wNhgNaKs+o0QBH8XNd66sOGuGjdTgR7OAtMuqpnvr+GLEDUpedCwbB73YtXcypIHTkkShB6ueRyIUPNIUBFQRsDXTGDlLTXlzQQ62GhYeEMLK32ByZU1jAzRYoGfhtVXVVxJVdGivIaIOBU3Ukrf5bwaQVhHWZ+OXD/yHV6163HxxJ/FR2H+L7W2CcOHTeHm9fPY2DqTkpaKg4MLixeOLTH+k4cSQbgeyqXLT8R00NROwFZPYFOUGl8rgQY2sgTB3liDv7aKnY9VmOsLzKoiMOScmg998vj9qhaP8v1UraiWx6AwLYkgZObAlrsqrI0F3isjsOq2vDiURBAMdAWaGwnsSFRjoCMQWFVg6Lniu8qiu6u6dT8g5MxWqrUcx6lf5zJy7GIWBRUuCmbOrTGP/4OoNLligq4bnWo7su3wYdQ6howaMYP5+eLdsWPnsGD+BAS1DiNHBbIwaATuVWpRpVJltv2yFn0TWz58vxfffDsPY1MLevcaz9KvZDZdrpw7UVGy0yQxPE0QyrrXwae8I7v2bsHA0JRPeg9hyfI5VPTuwKOIA7Tv1BNdXSui01Ts/WEGopfEylX8uHRRnPTVjBqzgIXzRxbk7+7XBuPsBM6FF3dn/aoShPLeLShv+Jg/T59+4RgRX9o5V6FB7cb8tLmQIIjXjwT6ahh6Ru6jhX4aJp2XJQjLA/IYflZL8hY4rbqGWefVZAkCs7wFJl2U438VkMewM1oSQZjlpWHMebXkaXCZv4ZB+XmK8UoiCF/55zE6WEsi/KO9NCy/qOaJmzQxTcdPFrNtdekE4UnDx46eQdCCydJPI8tKeLk5cTsxB8+y5iQmxEmT7J4/9jNqxBcsWjwJQaVmyJiFLAsa8UKCMHD0Er5b8TlpGWm813k45w+u5Xac7PwMlQ4jBo1i8fLiO+xXkSDo61rS3fsjopNvczRyD+n5ErMKVtWp5ehDYla6VNRv12SHXR/5jWdD8LM7+raePQiJPkp08h3MzWpTTi+TsJjzVHeoR3rKJcqXCeBK0l0qWbrz+81fsLVuRXbCbyTmgb62AV2rDWTduYVyGTVGE5cazcFbO8nILX03X5IEYdCohfywagKP0zJw8euDcO1nolKSJYKw67eddOnSje++noSvu08xCUK/4fNZs3h0AUFo1XU84Yc2EP3wIc6uPjSs4cV3P30PFbvS0fYu244dx8jcgX7d+7B4+Uw6dR7E5fDDXLl2mVoNOkJmEqfO/IGff2MsLY3Zv+9XibyYmFjw6JFM2j8esoBvl41+5ht6miBUcvMkLfUx0Q9lyVLDuo05fPzgCwhCY46cOMjTpkGVPKoTe+8miakpFJUguLlUlgiCvqk1psZGXL0pz0mu7tV5GBmGSscQL/fKnAo5g1qtRcPaDTh4/GCJ335JNgivShCad51G8P7iBMHBQMBUF64myevkGyMIVtkqDiSqMNCC8sYCl5NUrKypITTfD7qOlsCVeyoO5C/gr0oQ6usLbHikRlsFVcwFwhJVEkGYEa4mMRscLDWUyVER/hoIgq6xA4/v33ghQRDBFju9omcALerWZPtvv3Ln7q1SJ/6SCMI79gLmOfBznIqiKoZyDnlE3ZeP7eio4St/DQNPv5ggFFUxTKyoYdaN5xMEU+s8PrRQoUEePKIUR8y/aHiaIASf2UrVZqM5uyewVIKg5doRx/Rj3HnwrG54bN++BK2R9agVXL2JuHWBatXqUNbJjd27Nki62KH9x7J01Ry0tHQYPPxLoqOuoBEEdu1cR24Rcf/TBMG3dlt0hSxOndov5T9ufBCB88ZSoUIVnCwM0M1LwdnvffRMLVm+QNZHN3/3Iwz1ZBm7q6s3C4JGFNhe/F0EoXefyezZsYKY+JJtJIriXhJBEKVwojRu2Fm5j4qqGFb4aBgUKj8fVlnD91fVJOQ9nyAUVTGI323Rfi+JICz31xCeP8mUNRRYcUFFdF4hOf+rBKGKmxOR8VlUcbaUCEJZawt2HzrIqKFTiIySvXXaOFdl1eLhpRKElQtkdUGT5h/y6MYfXIrMVz38DQRBzFdP2wg7E0cau7ZlV9gi4nLyeMd7OKG3firowrh00Z4A+vmP45uzgc/MC209e3P0xvc8zs2lfvl3iUu7z5WYUJpUHsrBy0vp4zecQxEHKGdmwZ+Rx+nhN56N+URDT9uOWqZZHE54IinQwtm8PHVdWrL/2o/EZ7x4fJVEEIp+54JgxzuuWfwRkSgRhA1rplDBzZvr1x/RpIbrCwnC4BELWL742cVbJAj2iXt5ECdLaipWrMqNG+F07jyY0JM/c+NeDE7VWlDOIJdjp/7AzNKBj3oM5e69CNJSEvj9wLYCDF+WIFRxr0JCYgwPYmKltA3qNOJIKRKEg8cPS3G19C2o7VWRa5GRmNuUJeHuTeKfQxCMLWzR09PiRoQoDQILq3Lo58SSkqemirsLp0MuolKraVS74WslCM26TuPcUwTh6YH3xglC0Qo8PdEUfVcSQejuquHPCBUPS5Ag1NcT2BBTfLF6MwShUMXgFVCbS6eer2JQ6xgxYNBUvl09gwH9J7F48afPTARPPyhJxSASBItc2BJbnCCUtdfw8L6KXFF9U4Qg9KiWx4FrRSQIVTUMCpdVDEUJwgQ3DbPzjRJLkiAYl8kjN15N5guOBo0dNZGghbOkZogShFchCOoKHXBOP8HthyUQhD59CVpb3A20KLJ0KiAIegzpP5plq+YUQGhqVoayji60at1TXsDzVfPPEIRabdElk1OnZDuPceMDCZw3TiIIbZs3ZOOGVTR8byxOVqYsWjIBiwr18SqTx7GzJyWx/LBRC1m6cNTfThBGjw1iYdDYlzL6tLSrSMtGLdhURMXwQoJQXcOg8/L3MryKhg1X1CTmCcz2FpiYL0FYGpDH0HwJwiQPDZPybRBehiB8JRKT/PxLGuT9Ry1m1cL/vwTheQRhcO+BLP9mQbEiX6RiECUIr48gqLHUMyQhS5ZIVLWrjb5WJmeiz9PPbyzfBMsqkydBdAXf23cY3+bv9Cvb+HIr/jJZeZn0qDGOjedk4tCwfGseJV/manwkff3GsiY4iBrlPiAp9QaJSaHE5wr08x/DN2dle5d3qgznwKUl0v+i6uGJUaK/+0fcu3+QBynyTvt5oSSCMHbcYoLyjUYFwZkmLikcjJIJwndrppArCAiCE01qOP0tBOFJ3SSCcGobN+4+xMW3JWV1cySCIAWVChsbJ6pU8cPK3Jift4kbB3ivz0x2fzuR7KfmraclCK6uHgiZKURER6NrYEZdX19pgba3ccTEQJvrUVFYWDrg6uRQoGJ4QhD8AxpwPuQEubm5VPP2417kNYkg+NWoS2jIcUlS90SCIBhY4GJjxfkrl6T6+deoS0jIcQwMjd8oQejebxp7txWXIDw9Bv5RgjCgch6RsWr2x6roXkHDgXsqYvINnT6qpCEhRcXhWMjUqCT9UVsnAT0N/BytYpiHhmPRKs6nqCQVw99BEFRaemhpaWNfZzQPToj6Og15ObIITq1tSPUOEwjZNhVBI5ucONUdiFZ6BLfP78e+enfyEi4RE/V8I0VjE3Ncyjpz8Uo4Lh61uX/tJNmlnFxzcvUjwMuNrTt+LOg7UcVQxVRgyXU1nctrcNSXbRDsDQQGlxeYfFlN1/Ia9LNVrItWYWwo0NtBYNlNNU0dBHRzYE+sSiIItvoCQZfV1LbTUEEPNkbJi4a+jsA0L4FZF1TSApWSK0p/BD5zE/jimhpXcw0drWFevsRBTFO9zvvopt3hdJisQ34eQRAlKXr6Bpg6NsMs8Sh30zPJSBcnUSOG9e3LinVLcXSrSYfGtVm8Up7sx5ZAEKzs3HmvzftsWDeX8pUbUNPHlw0b5mNoaELLVl3YtvUb9I2sGDJoCgvmP58gGJg70L1DDzb/tAwbR0/q+Pry/ebV2Dt58GG3gQTOG4lHvY9oUtWN5cunYFWhGfU8TNixZxsu7rV5r20XFgWNRFBpY2Cgj1u15hjnJBJ6+Sy5OdkFJ09Gj5zF6m++JFeTR0Z62gsn5Qbv9ifm6p9cjZB3w6UGtS6jh89gwaJC0inapCyqoWHYGRUGujCnmsBnIbKKIbCGhkWXVGhpw2gPgZHBcr8v9tcQGK5CPAE2zl2Q1AqiiuHLahpmhqpIEWC+r8CQfKmEmEaUIGyJVHErDTLyIFdQMctXw4rLah5mw1B3DUuuqCUDQWlsGZehX8+BLF1R3M6nJBsEcdIUw5CBn7Fs5VzJ5kPHpAIlEoQDexgxJoif1s0iJimVbj1G8P16eVEdM3YR61dPIjYpjeHD57Lumy9ISc/geQRBKlelQ//eA1n17VdoNHlkZcpzQd9Rizmw+UtiHifnj1u5XfUadsLb3Z2Vq2bLpE6lTa+qPfnhwgZEFWPLSl3Yd+lrMkQbgqo9+emSrFYQQ2ZuBiJB6FNjJGvOBqJS69HLdwibQpeSnZdDD9+x7Lq0khz0aefZnZ9Cl0iSvA+9OvL9xa14WPvgbR3AlsurQGVAd6+ubLuyGTuzijR0acz6c/Kx1z7+4/k+ZCFZuTn0qD6U3VfWkZRPYKp416VJw5YsWzq5oK/ENCJBqFTWmt9PHEfIzSIzO4e6LYaimxXJwUN76PLJHHZvnElqeupzCYKOniHaWmo+/GQam1ZNRaNCwq563fcwzEvm+Kk/aPFuT1Luh3Ii9IKkYigqQXiC0ztt+mGQl8Svv22hY9fR3L1+grMhp6jkXgNzIz3OhJzAx78llSpU4KfNslGmqbU7ber6sWn7xmKfUUk2CD5evuhoqSQVsLWNvXSKQV/fEN+qNcjMSCM5NRlzU/NnCIK+sQU1vb1JTk0jKTuXpOgIiSCUc3HH1sKU23dvYWpsV2CDUN6lIvZWVuRqNNyOukVMQrxkg1CSBKFezfqcDXm+DYKWrpEk0/XpMInQ7TPRaHLR5GZJRorxwWvJyZf4CkIueTmF9l5Dh38pfQep6YVqpqrWGro7CHwWJkui3whBcLTSQl8DUZnF9f9aKhB3wxWNBW6mqth/XxRfF4bm9vLqeSVJxd10iSDStqxAWQOBCwkqjsbJ+ZnpCZTVgkvpxfNvYidwIlZFZh4Y6wsYaCD2BZbWRlaemFhbF1QgLzOV2NshMlBqHdzq9uDmsQ0ScXgSbN0bYWJdjrSEOzy4XLK+qNio/H/8+PCjcTyKCuPA4f0Fu8kOTgI2ugIRqSoe50JwvNx2ETMrPYG4LBUHHsiLuxjq2wpUNRe4k6pi332VRExEVYxaC7xMBCne3rsqHhcRA1ezErDNt1Tf/6Aw/0qmAhEpcPCRWloQxFDVpwEN6jZm/do5pGTIRzEdHT14+OAa1i7+PIw4Qw3/ppw7+wciUarsKR/XehLOnJF3AT7V6+NS3pP4mLucP3+swKgvwLsqZy6EP4NeBXd/nB2cyUh/TPCZPwr0gf4BTTEzsyI7K4UbF47zILHQAtvTswYP7t/gcVLhM2cXL8q7uJGbnU74+cPSGWFxF+Hj7YdYN30DOzzc3QgNPSbZIPjVbIGzozN3oy6Tiw4hwQdRGdrg7+VdrI73om9xP/q2jEc5bxxtbUCTzZngQqPJkobEoCFz+O7b6cU+3tKGTtmKtWnduDGbf1jC4xR511rbRqCGhcDNFJXUVydiVJJdgJuZgJepeAQOQhIgOkPuXxdjgbrWAlqoOBsHV1JUaKuhlpWsmyxvJBBe5NsT02irBZrYyrW7GA/3s1W4mgrUtBLQU8nHaK/mq/ZMLexo1rwrF8//wbXrF4o1Sa1jipu9EdfvFJ4uCAhoWixOfPRl7sRnUcbChKSMXMqYGpCRmYGJgR4RURGYmFrh69cEM2NDye4kLOyUlF5L14wmjVtjZKDHraunuXD1sjze/JoSGiyPvXIuVUhLvE1cUhpPlysaJV7JNzrV0TWguo9scBccfBBNvgGpl3dtHG1t2Xdge0Gdy1l6UdGyIqlZj7mdeJWHqQ9Qq43wsqlSpF0C4ZIRI7iU8cXN3IWM7ATCoo+Tmicb2rlaVqacZSXSMhO4Hn+RxIwE6digo7El0anRWBraUNbUhfCHZ9DVMcXDyiM//8K8xQeVbWpgZ+pMTk4KN+PO8yAtvqAe5StUprJHVXbvKdyMiC91DUzx8ZaPaabFX+XSrWjEkzo1ajTEzNSCpKQE6RsRg3fV+lwKP5o/j5vgbGvKnUfRlKtUC1tzo2J9KabR0jGgZkAj7O2diYq8QvC5/CPEFp4YZ0aSmlHUckVOLvavhbklyY8fcTb/OxJtlgL86mNiYkZyUgJnzxyQDLTFoNLS4aN+04m4fIyjR3cX1KG0UwzFKvsv+1HUBsHGvYFkG/QkZCTHkHT/KiaOvhiZyARbDJrMWGJuX5GMuJu26EV26j2OHpPVqk9CPzcNt5NVHIh5gzYIirOmvz66/Gu2IDkplmtXZcLybwuNG7fn9Ml9pGc++0H/2+r676+PLp3f68aWX9a/clVty3pSydWDo4d/eeW0byJB8/a9ibx0WrIUV4KCwJtCQDzeXLdOS04f20NO/rbpbSYIf+W65bbdhhBzI5TTwfJJsKJhUjUNyy6pScw/of1GJAgKQXhTn4FSjoKAgoCCgILAyyAgXrMsXrf8NoY87b/7ZgUZBU9TQbqg8ElQCMLbODqUOisIKAgoCCgI/C0IqDVvF0kQpQdvKigE4U0hrZSjIKAgoCCgIKAg8BYh8NoJwluEhVJVBQEFAQUBBQEFAQWBfAQUgqAMBQUBBQEFAQUBBQEFgWcQUAiCMigUBBQEFAQUBBQEFAQUgqCMAQUBBQEFAQUBBQEFgdIRkCQIE+Ys596ti3y/ZnnB5RKlJ1ViKAgoCCgIKAgoCCgI/FcRKFAx+NRqjqNpJrv3599k9V9tsdIuBQEFAQUBBQEFAQWBUhEoJAj+DbE2zOD3w4W+2EtNrURQEFAQUBBQEFAQUBD4TyJQSBAadEQ7PpjgS3f+kw1VGqUgoCCgIKAgoCCgIPDyCBQQhErVatOyZUvOnj7Oo8gLREQVOkx5+eyUmAoCCgIKAgoCCgIKAv8FBAoIQuWqfnj5VOP33TvJSk8hvQQvWv+FBittUBBQEFAQUBBQEFAQKB2BQhVD3fbopYRzOjyy9FRKDAUBBQEFAQUBBQEFgf80AkWMFBtga5LNvj9l/+lKUBBQEFAQUBBQEFAQ+N9FoIAgtO4xjPTIIxw8Efa/i4bScgUBBQEFAQUBBQEFAQkBiSB07NGP29cvEnJWkR4o40JBQEFAQUBBQEFAQSCfIChAKAgoCCgIKAgoCCgIKAgURUBx1qSMBwUBBQEFAQUBBQEFgWcQUAiCMigUBBQEFAQUBBQEFASeQeD/AJWWU42AcxlgAAAAAElFTkSuQmCC;" vertex="1" parent="1">
          <mxGeometry x="20" y="20" width="547.96" height="196" as="geometry" />
        </mxCell>
        <mxCell id="BzTV7QNFPkAEFTMii8ra-4" value="reverse()" style="shape=umlLifeline;perimeter=lifelinePerimeter;whiteSpace=wrap;html=1;container=1;dropTarget=0;collapsible=0;recursiveResize=0;outlineConnect=0;portConstraint=eastwest;newEdgeStyle={&quot;edgeStyle&quot;:&quot;elbowEdgeStyle&quot;,&quot;elbow&quot;:&quot;vertical&quot;,&quot;curved&quot;:0,&quot;rounded&quot;:0};" vertex="1" parent="1">
          <mxGeometry x="170" y="230" width="100" height="340" as="geometry" />
        </mxCell>
        <mxCell id="BzTV7QNFPkAEFTMii8ra-23" value="阻塞" style="html=1;points=[];perimeter=orthogonalPerimeter;outlineConnect=0;targetShapes=umlLifeline;portConstraint=eastwest;newEdgeStyle={&quot;edgeStyle&quot;:&quot;elbowEdgeStyle&quot;,&quot;elbow&quot;:&quot;vertical&quot;,&quot;curved&quot;:0,&quot;rounded&quot;:0};" vertex="1" parent="BzTV7QNFPkAEFTMii8ra-4">
          <mxGeometry x="45" y="200" width="10" height="80" as="geometry" />
        </mxCell>
        <mxCell id="BzTV7QNFPkAEFTMii8ra-5" value="检查permets" style="html=1;verticalAlign=bottom;endArrow=block;edgeStyle=elbowEdgeStyle;elbow=vertical;curved=0;rounded=0;" edge="1" parent="1" target="BzTV7QNFPkAEFTMii8ra-7">
          <mxGeometry width="80" relative="1" as="geometry">
            <mxPoint x="220" y="310" as="sourcePoint" />
            <mxPoint x="300" y="310" as="targetPoint" />
            <mxPoint as="offset" />
          </mxGeometry>
        </mxCell>
        <mxCell id="BzTV7QNFPkAEFTMii8ra-6" value="单例方式获取锁" style="html=1;verticalAlign=bottom;endArrow=block;edgeStyle=elbowEdgeStyle;elbow=vertical;curved=0;rounded=0;" edge="1" parent="1" target="BzTV7QNFPkAEFTMii8ra-9">
          <mxGeometry width="80" relative="1" as="geometry">
            <mxPoint x="220" y="340" as="sourcePoint" />
            <mxPoint x="300" y="340" as="targetPoint" />
            <Array as="points">
              <mxPoint x="420" y="330" />
            </Array>
          </mxGeometry>
        </mxCell>
        <mxCell id="BzTV7QNFPkAEFTMii8ra-7" value="checkPermits()" style="shape=umlLifeline;perimeter=lifelinePerimeter;whiteSpace=wrap;html=1;container=1;dropTarget=0;collapsible=0;recursiveResize=0;outlineConnect=0;portConstraint=eastwest;newEdgeStyle={&quot;edgeStyle&quot;:&quot;elbowEdgeStyle&quot;,&quot;elbow&quot;:&quot;vertical&quot;,&quot;curved&quot;:0,&quot;rounded&quot;:0};" vertex="1" parent="1">
          <mxGeometry x="300" y="230" width="100" height="300" as="geometry" />
        </mxCell>
        <mxCell id="BzTV7QNFPkAEFTMii8ra-8" value="获取等待时间" style="html=1;verticalAlign=bottom;endArrow=block;edgeStyle=elbowEdgeStyle;elbow=vertical;curved=0;rounded=0;" edge="1" parent="1">
          <mxGeometry width="80" relative="1" as="geometry">
            <mxPoint x="90" y="290" as="sourcePoint" />
            <mxPoint x="210" y="290" as="targetPoint" />
          </mxGeometry>
        </mxCell>
        <mxCell id="BzTV7QNFPkAEFTMii8ra-9" value="mutex()" style="shape=umlLifeline;perimeter=lifelinePerimeter;whiteSpace=wrap;html=1;container=1;dropTarget=0;collapsible=0;recursiveResize=0;outlineConnect=0;portConstraint=eastwest;newEdgeStyle={&quot;edgeStyle&quot;:&quot;elbowEdgeStyle&quot;,&quot;elbow&quot;:&quot;vertical&quot;,&quot;curved&quot;:0,&quot;rounded&quot;:0};" vertex="1" parent="1">
          <mxGeometry x="420" y="230" width="100" height="300" as="geometry" />
        </mxCell>
        <mxCell id="BzTV7QNFPkAEFTMii8ra-10" value="sleepMicrosUninterruptibly()&lt;br&gt;抽象方法" style="shape=umlLifeline;perimeter=lifelinePerimeter;whiteSpace=wrap;html=1;container=1;dropTarget=0;collapsible=0;recursiveResize=0;outlineConnect=0;portConstraint=eastwest;newEdgeStyle={&quot;edgeStyle&quot;:&quot;elbowEdgeStyle&quot;,&quot;elbow&quot;:&quot;vertical&quot;,&quot;curved&quot;:0,&quot;rounded&quot;:0};" vertex="1" parent="1">
          <mxGeometry x="840" y="230" width="100" height="300" as="geometry" />
        </mxCell>
        <mxCell id="BzTV7QNFPkAEFTMii8ra-12" value="阻塞microsToWait时间" style="html=1;verticalAlign=bottom;endArrow=block;edgeStyle=elbowEdgeStyle;elbow=vertical;curved=0;rounded=0;" edge="1" parent="1" target="BzTV7QNFPkAEFTMii8ra-10">
          <mxGeometry x="0.0006" width="80" relative="1" as="geometry">
            <mxPoint x="220" y="410" as="sourcePoint" />
            <mxPoint x="170" y="380" as="targetPoint" />
            <Array as="points" />
            <mxPoint as="offset" />
          </mxGeometry>
        </mxCell>
        <mxCell id="BzTV7QNFPkAEFTMii8ra-13" value="reserveAndGetWaitLength()" style="shape=umlLifeline;perimeter=lifelinePerimeter;whiteSpace=wrap;html=1;container=1;dropTarget=0;collapsible=0;recursiveResize=0;outlineConnect=0;portConstraint=eastwest;newEdgeStyle={&quot;edgeStyle&quot;:&quot;elbowEdgeStyle&quot;,&quot;elbow&quot;:&quot;vertical&quot;,&quot;curved&quot;:0,&quot;rounded&quot;:0};" vertex="1" parent="1">
          <mxGeometry x="550" y="230" width="100" height="300" as="geometry" />
        </mxCell>
        <mxCell id="BzTV7QNFPkAEFTMii8ra-14" value="reserveEarliestAvailable()抽象方法" style="shape=umlLifeline;perimeter=lifelinePerimeter;whiteSpace=wrap;html=1;container=1;dropTarget=0;collapsible=0;recursiveResize=0;outlineConnect=0;portConstraint=eastwest;newEdgeStyle={&quot;edgeStyle&quot;:&quot;elbowEdgeStyle&quot;,&quot;elbow&quot;:&quot;vertical&quot;,&quot;curved&quot;:0,&quot;rounded&quot;:0};" vertex="1" parent="1">
          <mxGeometry x="700" y="230" width="100" height="300" as="geometry" />
        </mxCell>
        <mxCell id="BzTV7QNFPkAEFTMii8ra-15" value="获取等待时间" style="html=1;verticalAlign=bottom;endArrow=block;edgeStyle=elbowEdgeStyle;elbow=vertical;curved=0;rounded=0;" edge="1" parent="1" target="BzTV7QNFPkAEFTMii8ra-13">
          <mxGeometry width="80" relative="1" as="geometry">
            <mxPoint x="220" y="380" as="sourcePoint" />
            <mxPoint x="300" y="380" as="targetPoint" />
            <Array as="points">
              <mxPoint x="330" y="350" />
              <mxPoint x="400" y="360" />
            </Array>
          </mxGeometry>
        </mxCell>
        <mxCell id="BzTV7QNFPkAEFTMii8ra-16" value="获取最早可用时间" style="html=1;verticalAlign=bottom;endArrow=block;edgeStyle=elbowEdgeStyle;elbow=vertical;curved=0;rounded=0;" edge="1" parent="1" target="BzTV7QNFPkAEFTMii8ra-14">
          <mxGeometry width="80" relative="1" as="geometry">
            <mxPoint x="600" y="360" as="sourcePoint" />
            <mxPoint x="680" y="360" as="targetPoint" />
          </mxGeometry>
        </mxCell>
        <mxCell id="BzTV7QNFPkAEFTMii8ra-17" value="return" style="html=1;verticalAlign=bottom;endArrow=open;dashed=1;endSize=8;edgeStyle=elbowEdgeStyle;elbow=vertical;curved=0;rounded=0;" edge="1" parent="1" target="BzTV7QNFPkAEFTMii8ra-13">
          <mxGeometry relative="1" as="geometry">
            <mxPoint x="750" y="380" as="sourcePoint" />
            <mxPoint x="680" y="380" as="targetPoint" />
          </mxGeometry>
        </mxCell>
        <mxCell id="BzTV7QNFPkAEFTMii8ra-18" value="return" style="html=1;verticalAlign=bottom;endArrow=open;dashed=1;endSize=8;edgeStyle=elbowEdgeStyle;elbow=vertical;curved=0;rounded=0;" edge="1" parent="1" target="BzTV7QNFPkAEFTMii8ra-4">
          <mxGeometry relative="1" as="geometry">
            <mxPoint x="620" y="380" as="sourcePoint" />
            <mxPoint x="540" y="380" as="targetPoint" />
          </mxGeometry>
        </mxCell>
        <mxCell id="BzTV7QNFPkAEFTMii8ra-19" value="返回等待时间&lt;br&gt;microsToWait" style="html=1;verticalAlign=bottom;endArrow=open;dashed=1;endSize=8;edgeStyle=elbowEdgeStyle;elbow=vertical;curved=0;rounded=0;" edge="1" parent="1">
          <mxGeometry relative="1" as="geometry">
            <mxPoint x="220" y="540" as="sourcePoint" />
            <mxPoint x="90" y="540" as="targetPoint" />
            <mxPoint as="offset" />
          </mxGeometry>
        </mxCell>
        <mxCell id="BzTV7QNFPkAEFTMii8ra-20" value="sleepUninterruptibly" style="shape=umlLifeline;perimeter=lifelinePerimeter;whiteSpace=wrap;html=1;container=1;dropTarget=0;collapsible=0;recursiveResize=0;outlineConnect=0;portConstraint=eastwest;newEdgeStyle={&quot;edgeStyle&quot;:&quot;elbowEdgeStyle&quot;,&quot;elbow&quot;:&quot;vertical&quot;,&quot;curved&quot;:0,&quot;rounded&quot;:0};" vertex="1" parent="1">
          <mxGeometry x="1000" y="230" width="100" height="300" as="geometry" />
        </mxCell>
        <mxCell id="BzTV7QNFPkAEFTMii8ra-22" value="非打断阻塞" style="html=1;verticalAlign=bottom;endArrow=block;edgeStyle=elbowEdgeStyle;elbow=vertical;curved=0;rounded=0;" edge="1" parent="1" target="BzTV7QNFPkAEFTMii8ra-20">
          <mxGeometry x="0.0031" width="80" relative="1" as="geometry">
            <mxPoint x="890" y="440" as="sourcePoint" />
            <mxPoint x="970" y="440" as="targetPoint" />
            <mxPoint as="offset" />
          </mxGeometry>
        </mxCell>
      </root>
    </mxGraphModel>
  </diagram>
</mxfile>
